<svg width="440" height="956" viewBox="0 0 440 956" fill="none" xmlns="http://www.w3.org/2000/svg">
<rect width="440" height="956" fill="white"/>
<path d="M148.298 427.38C109.234 466.553 109.234 531.018 148.298 570.191L152.811 574.717C172.229 594.19 172.229 625.806 152.811 645.283L148.298 649.809C109.234 688.983 109.234 753.447 148.298 792.62C187.362 831.793 251.638 831.793 290.702 792.62C329.766 753.447 329.766 688.983 290.702 649.809L286.189 645.283C266.771 625.81 266.771 594.194 286.189 574.717L290.702 570.191C329.766 531.018 329.766 466.553 290.702 427.38C251.638 388.207 187.362 388.207 148.298 427.38ZM254.717 646.205C235.471 665.505 203.826 665.486 184.619 646.225C165.392 626.944 165.392 595.211 184.619 575.931L184.638 575.911C204.002 556.497 235.353 556.497 254.717 575.911C273.944 595.191 273.944 626.925 254.717 646.205Z" fill="black"/>
<path d="M148.298 149.38C109.234 188.553 109.234 253.018 148.298 292.191L152.811 296.717C172.229 316.19 172.229 347.806 152.811 367.283L148.298 371.809C109.234 410.983 109.234 475.447 148.298 514.62C187.362 553.793 251.638 553.793 290.702 514.62C329.766 475.447 329.766 410.983 290.702 371.809L286.189 367.283C266.771 347.81 266.771 316.194 286.189 296.717L290.702 292.191C329.766 253.018 329.766 188.553 290.702 149.38C251.638 110.207 187.362 110.207 148.298 149.38ZM254.717 368.205C235.471 387.505 203.826 387.486 184.619 368.225C165.392 348.944 165.392 317.211 184.619 297.931L184.638 297.911C204.002 278.497 235.353 278.497 254.717 297.911C273.944 317.191 273.944 348.925 254.717 368.205Z" fill="black"/>
<path d="M220.5 752C292.573 752 351 670.516 351 570C351 469.484 292.573 388 220.5 388C148.427 388 90 469.484 90 570C90 670.516 148.427 752 220.5 752Z" fill="white"/>
<path d="M220.5 550C292.573 550 351 470.307 351 372C351 273.693 292.573 194 220.5 194C148.427 194 90 273.693 90 372C90 470.307 148.427 550 220.5 550Z" fill="white"/>
<path d="M238.562 469.427C248.479 459.998 248.479 444.5 238.562 435.072C228.644 425.643 212.337 425.643 202.438 435.072C192.54 444.5 192.521 459.998 202.438 469.427L212.507 479L202.438 488.573C192.521 498.002 192.521 513.5 202.438 522.928C212.356 532.357 228.663 532.357 238.562 522.928C248.479 513.5 248.479 498.002 238.562 488.573L228.493 479M229.365 511.621C224.473 516.263 216.451 516.263 211.578 511.621C206.705 506.979 206.705 499.357 211.578 494.714L220.471 486.261L229.365 494.714C234.238 499.357 234.238 506.979 229.365 511.621ZM229.384 463.285L220.49 471.739L211.597 463.285C206.724 458.643 206.724 451.021 211.597 446.379C216.489 441.737 224.511 441.737 229.384 446.379C234.257 451.021 234.257 458.643 229.384 463.285Z" fill="black"/>
</svg>
