<svg width="440" height="956" viewBox="0 0 440 956" fill="none" xmlns="http://www.w3.org/2000/svg">
<rect width="440" height="956" fill="white"/>
<path d="M288.574 515.491C326.475 553.374 326.475 615.704 288.574 653.587C250.673 691.471 188.327 691.471 150.426 653.587C112.525 615.704 112.525 553.374 150.426 515.491C150.426 515.491 168.5 498.262 168.5 477C168.5 455.738 150.426 438.509 150.426 438.509C112.525 400.626 112.525 338.296 150.426 300.413C188.327 262.529 250.673 262.529 288.574 300.413C326.475 338.296 326.475 400.626 288.574 438.509C288.574 438.509 270 455.738 270 477C270 498.263 288.574 515.491 288.574 515.491Z" fill="black" stroke="black" stroke-width="0.2" stroke-miterlimit="10"/>
<path d="M288.574 515.491C326.475 553.374 326.475 615.704 288.574 653.587C250.673 691.471 188.327 691.471 150.426 653.587C112.525 615.704 112.525 553.374 150.426 515.491C150.426 515.491 168.5 498.262 168.5 477C168.5 455.738 150.426 438.509 150.426 438.509C112.525 400.626 112.525 338.296 150.426 300.413C188.327 262.529 250.673 262.529 288.574 300.413C326.475 338.296 326.475 400.626 288.574 438.509C288.574 438.509 270 455.738 270 477C270 498.263 288.574 515.491 288.574 515.491Z" fill="black" stroke="black" stroke-width="0.2" stroke-miterlimit="10"/>
<path d="M220.242 526C247.027 526 268.742 504.509 268.742 478C268.742 451.49 247.027 430 220.242 430C193.456 430 171.742 451.49 171.742 478C171.742 504.509 193.456 526 220.242 526Z" fill="white"/>
<path d="M219.242 527C246.027 527 267.742 505.509 267.742 479C267.742 452.49 246.027 431 219.242 431C192.456 431 170.742 452.49 170.742 479C170.742 505.509 192.456 527 219.242 527Z" fill="white"/>
<path d="M222.125 477.874C223.292 476.764 223.292 474.941 222.125 473.832C220.958 472.723 219.04 472.723 217.875 473.832C216.711 474.941 216.708 476.764 217.875 477.874L219.06 479L217.875 480.126C216.708 481.236 216.708 483.059 217.875 484.168C219.042 485.277 220.96 485.277 222.125 484.168C223.292 483.059 223.292 481.236 222.125 480.126L220.94 479M221.043 482.838C220.467 483.384 219.524 483.384 218.95 482.838C218.377 482.292 218.377 481.395 218.95 480.849L219.997 479.854L221.043 480.849C221.616 481.395 221.616 482.292 221.043 482.838ZM221.045 477.151L219.999 478.146L218.953 477.151C218.379 476.605 218.379 475.708 218.953 475.162C219.528 474.616 220.472 474.616 221.045 475.162C221.619 475.708 221.619 476.605 221.045 477.151Z" fill="black"/>
</svg>
