<svg width="440" height="956" viewBox="0 0 440 956" fill="none" xmlns="http://www.w3.org/2000/svg">
<rect width="440" height="956" fill="white"/>
<path d="M288.574 516.491C326.475 554.374 326.475 616.704 288.574 654.587C250.673 692.471 188.327 692.471 150.426 654.587C112.525 616.704 112.525 554.374 150.426 516.491C150.426 516.491 168.5 499.262 168.5 478C168.5 456.738 150.426 439.509 150.426 439.509C112.525 401.626 112.525 339.296 150.426 301.413C188.327 263.529 250.673 263.529 288.574 301.413C326.475 339.296 326.475 401.626 288.574 439.509C288.574 439.509 270 456.738 270 478C270 499.263 288.574 516.491 288.574 516.491Z" fill="black" stroke="black" stroke-width="0.2" stroke-miterlimit="10"/>
<path d="M288.574 516.491C326.475 554.374 326.475 616.704 288.574 654.587C250.673 692.471 188.327 692.471 150.426 654.587C112.525 616.704 112.525 554.374 150.426 516.491C150.426 516.491 168.5 499.262 168.5 478C168.5 456.738 150.426 439.509 150.426 439.509C112.525 401.626 112.525 339.296 150.426 301.413C188.327 263.529 250.673 263.529 288.574 301.413C326.475 339.296 326.475 401.626 288.574 439.509C288.574 439.509 270 456.738 270 478C270 499.263 288.574 516.491 288.574 516.491Z" fill="black" stroke="black" stroke-width="0.2" stroke-miterlimit="10"/>
<path d="M268.5 634C295.286 634 317 612.51 317 586C317 559.49 295.286 538 268.5 538C241.714 538 220 559.49 220 586C220 612.51 241.714 634 268.5 634Z" fill="white"/>
<path d="M171.5 414C198.286 414 220 392.51 220 366C220 339.49 198.286 318 171.5 318C144.714 318 123 339.49 123 366C123 392.51 144.714 414 171.5 414Z" fill="white"/>
</svg>
