<svg width="440" height="956" viewBox="0 0 440 956" fill="none" xmlns="http://www.w3.org/2000/svg">
<rect width="440" height="956" fill="white"/>
<path d="M289.574 516.491C327.475 554.374 327.475 616.704 289.574 654.587C251.673 692.471 189.327 692.471 151.426 654.587C113.525 616.704 113.525 554.374 151.426 516.491C172.69 495.236 172.69 460.764 151.426 439.509C113.525 401.626 113.525 339.296 151.426 301.413C189.327 263.529 251.673 263.529 289.574 301.413C327.475 339.296 327.475 401.626 289.574 439.509C268.31 460.764 268.31 495.236 289.574 516.491Z" fill="black" stroke="black" stroke-width="0.2" stroke-miterlimit="10"/>
<path d="M289.574 516.491C327.475 554.374 327.475 616.704 289.574 654.587C251.673 692.471 189.327 692.471 151.426 654.587C113.525 616.704 113.525 554.374 151.426 516.491C172.69 495.236 172.69 460.764 151.426 439.509C113.525 401.626 113.525 339.296 151.426 301.413C189.327 263.529 251.673 263.529 289.574 301.413C327.475 339.296 327.475 401.626 289.574 439.509C268.31 460.764 268.31 495.236 289.574 516.491Z" fill="black" stroke="black" stroke-width="0.2" stroke-miterlimit="10"/>
<path d="M219.5 624C247.114 624 269.5 601.614 269.5 574C269.5 546.386 247.114 524 219.5 524C191.886 524 169.5 546.386 169.5 574C169.5 601.614 191.886 624 219.5 624Z" fill="white"/>
<path d="M219.5 432C247.114 432 269.5 409.614 269.5 382C269.5 354.386 247.114 332 219.5 332C191.886 332 169.5 354.386 169.5 382C169.5 409.614 191.886 432 219.5 432Z" fill="white"/>
</svg>
