<svg width="440" height="956" viewBox="0 0 440 956" fill="none" xmlns="http://www.w3.org/2000/svg">
<rect width="440" height="956" fill="white"/>
<path d="M289.574 516.491C327.475 554.374 327.475 616.704 289.574 654.587C251.673 692.471 189.327 692.471 151.426 654.587C113.525 616.704 113.525 554.374 151.426 516.491L189.933 478L151.426 439.509C113.525 401.626 113.525 339.296 151.426 301.413C189.327 263.529 251.673 263.529 289.574 301.413C327.475 339.296 327.475 401.626 289.574 439.509L251.067 478L289.574 516.491Z" fill="black"/>
<path d="M220.5 624C247.286 624 269 602.51 269 576C269 549.49 220.5 507 220.5 507C220.5 507 172 549.49 172 576C172 602.51 193.714 624 220.5 624Z" fill="white"/>
<path d="M220.5 449C220.5 449 269 406.51 269 380C269 353.49 247.286 332 220.5 332C193.714 332 172 353.49 172 380C172 406.51 220.5 449 220.5 449Z" fill="white"/>
<path d="M289.574 516.491C327.475 554.374 327.475 616.704 289.574 654.587C251.673 692.471 189.327 692.471 151.426 654.587C113.525 616.704 113.525 554.374 151.426 516.491C172.69 495.236 172.69 460.764 151.426 439.509C113.525 401.626 113.525 339.296 151.426 301.413C189.327 263.529 251.673 263.529 289.574 301.413C327.475 339.296 327.475 401.626 289.574 439.509C268.31 460.764 268.31 495.236 289.574 516.491Z" fill="black"/>
<circle cx="221" cy="382" r="50" fill="white"/>
<circle cx="221" cy="574" r="50" fill="white"/>
</svg>
