<svg width="440" height="956" viewBox="0 0 440 956" fill="none" xmlns="http://www.w3.org/2000/svg">
<rect width="440" height="956" fill="white"/>
<path d="M288.574 514.491C326.475 552.374 326.475 614.704 288.574 652.587C250.673 690.471 188.327 690.471 150.426 652.587C112.525 614.704 112.525 552.374 150.426 514.491C150.426 514.491 168.5 497.262 168.5 476C168.5 454.738 150.426 437.509 150.426 437.509C112.525 399.626 112.525 337.296 150.426 299.413C188.327 261.529 250.673 261.529 288.574 299.413C326.475 337.296 326.475 399.626 288.574 437.509C288.574 437.509 270 454.738 270 476C270 497.263 288.574 514.491 288.574 514.491Z" fill="black" stroke="black" stroke-width="0.2" stroke-miterlimit="10"/>
<path d="M288.574 514.491C326.475 552.374 326.475 614.704 288.574 652.587C250.673 690.471 188.327 690.471 150.426 652.587C112.525 614.704 112.525 552.374 150.426 514.491C150.426 514.491 168.5 497.262 168.5 476C168.5 454.738 150.426 437.509 150.426 437.509C112.525 399.626 112.525 337.296 150.426 299.413C188.327 261.529 250.673 261.529 288.574 299.413C326.475 337.296 326.475 399.626 288.574 437.509C288.574 437.509 270 454.738 270 476C270 497.263 288.574 514.491 288.574 514.491Z" fill="black" stroke="black" stroke-width="0.2" stroke-miterlimit="10"/>
<path d="M198.956 675.503C223.232 686.823 251.994 676.523 263.197 652.497C274.401 628.471 263.803 599.817 239.527 588.497C215.251 577.177 186.489 587.477 175.286 611.503C164.082 635.529 174.68 664.182 198.956 675.503Z" fill="white"/>
<path d="M199.956 363.503C224.232 374.823 252.994 364.523 264.197 340.497C275.401 316.471 264.803 287.817 240.527 276.497C216.251 265.177 187.489 275.477 176.286 299.503C165.082 323.529 175.68 352.182 199.956 363.503Z" fill="white"/>
</svg>
