<svg width="440" height="956" viewBox="0 0 440 956" fill="none" xmlns="http://www.w3.org/2000/svg">
<rect width="440" height="956" fill="white"/>
<path d="M229.356 482.882C234.215 487.687 234.215 495.592 229.356 500.396C224.497 505.201 216.503 505.201 211.644 500.396C206.785 495.592 206.785 487.687 211.644 482.882C214.362 480.195 214.362 475.805 211.644 473.118C206.785 468.313 206.785 460.408 211.644 455.604C216.503 450.799 224.497 450.799 229.356 455.604C234.215 460.408 234.215 468.313 229.356 473.118C226.638 475.805 226.638 480.195 229.356 482.882Z" fill="black"/>
<circle cx="221" cy="382" r="39" fill="white"/>
<circle cx="221" cy="574" r="39" fill="white"/>
<path d="M289.074 516.491C326.975 554.374 326.975 616.704 289.074 654.587C251.173 692.471 188.827 692.471 150.926 654.587C113.025 616.704 113.025 554.374 150.926 516.491L189.433 478L150.926 439.509C113.025 401.626 113.025 339.296 150.926 301.413C188.827 263.529 251.173 263.529 289.074 301.413C326.975 339.296 326.975 401.626 289.074 439.509L250.567 478L289.074 516.491Z" fill="black"/>
<path d="M220 624C246.786 624 268.5 602.51 268.5 576C268.5 549.49 220 507 220 507C220 507 171.5 549.49 171.5 576C171.5 602.51 193.214 624 220 624Z" fill="white"/>
<path d="M220 449C220 449 268.5 406.51 268.5 380C268.5 353.49 246.786 332 220 332C193.214 332 171.5 353.49 171.5 380C171.5 406.51 220 449 220 449Z" fill="white"/>
</svg>
