<svg width="440" height="956" viewBox="0 0 440 956" fill="none" xmlns="http://www.w3.org/2000/svg">
<rect width="440" height="956" fill="white"/>
<path d="M288.574 516.491C326.475 554.374 326.475 616.704 288.574 654.587C250.673 692.471 188.327 692.471 150.426 654.587C112.525 616.704 112.525 554.374 150.426 516.491C150.426 516.491 168.5 499.262 168.5 478C168.5 456.738 150.426 439.509 150.426 439.509C112.525 401.626 112.525 339.296 150.426 301.413C188.327 263.529 250.673 263.529 288.574 301.413C326.475 339.296 326.475 401.626 288.574 439.509C288.574 439.509 270 456.738 270 478C270 499.263 288.574 516.491 288.574 516.491Z" fill="black" stroke="black" stroke-width="0.2" stroke-miterlimit="10"/>
<path d="M288.574 516.491C326.475 554.374 326.475 616.704 288.574 654.587C250.673 692.471 188.327 692.471 150.426 654.587C112.525 616.704 112.525 554.374 150.426 516.491C150.426 516.491 168.5 499.262 168.5 478C168.5 456.738 150.426 439.509 150.426 439.509C112.525 401.626 112.525 339.296 150.426 301.413C188.327 263.529 250.673 263.529 288.574 301.413C326.475 339.296 326.475 401.626 288.574 439.509C288.574 439.509 270 456.738 270 478C270 499.263 288.574 516.491 288.574 516.491Z" fill="black" stroke="black" stroke-width="0.2" stroke-miterlimit="10"/>
<path d="M150.956 629.503C175.232 640.823 203.994 630.523 215.197 606.497C226.401 582.471 215.803 553.817 191.527 542.497C167.251 531.177 138.489 541.477 127.286 565.503C116.082 589.529 126.68 618.182 150.956 629.503Z" fill="white"/>
<path d="M247.956 413.503C272.232 424.823 300.994 414.523 312.197 390.497C323.401 366.471 312.803 337.817 288.527 326.497C264.251 315.177 235.489 325.477 224.286 349.503C213.082 373.529 223.68 402.182 247.956 413.503Z" fill="white"/>
</svg>
