<svg width="440" height="956" viewBox="0 0 440 956" fill="none" xmlns="http://www.w3.org/2000/svg">
<rect width="440" height="956" fill="white"/>
<path d="M149.206 298.435C110.576 337.06 110.576 400.622 149.206 439.247L153.668 443.71C172.871 462.911 172.871 494.084 153.668 513.288L149.206 517.751C110.576 556.377 110.576 619.939 149.206 658.564C187.836 697.189 251.398 697.189 290.028 658.564C328.658 619.939 328.658 556.377 290.028 517.751L285.565 513.288C266.362 494.088 266.362 462.915 285.565 443.71L290.028 439.247C328.658 400.622 328.658 337.06 290.028 298.435C251.398 259.81 187.836 259.81 149.206 298.435ZM254.443 514.198C235.41 533.228 204.117 533.208 185.123 514.217C166.11 495.207 166.11 463.917 185.123 444.907L185.142 444.887C204.291 425.745 235.294 425.745 254.443 444.887C273.456 463.898 273.456 495.187 254.443 514.198Z" fill="black"/>
<path d="M149.206 298.435C110.576 337.06 110.576 400.622 149.206 439.247L153.668 443.71C172.871 462.911 172.871 494.084 153.668 513.288L149.206 517.751C110.576 556.377 110.576 619.939 149.206 658.564C187.836 697.189 251.398 697.189 290.028 658.564C328.658 619.939 328.658 556.377 290.028 517.751L285.565 513.288C266.362 494.088 266.362 462.915 285.565 443.71L290.028 439.247C328.658 400.622 328.658 337.06 290.028 298.435C251.398 259.81 187.836 259.81 149.206 298.435ZM254.443 514.198C235.41 533.228 204.117 533.208 185.123 514.217C166.11 495.207 166.11 463.917 185.123 444.907L185.142 444.887C204.291 425.745 235.294 425.745 254.443 444.887C273.456 463.898 273.456 495.187 254.443 514.198Z" fill="black"/>
<path d="M219.336 586.501C247.184 586.501 269.758 539.707 269.758 481.983C269.758 424.26 247.184 377.466 219.336 377.466C191.489 377.466 168.915 424.26 168.915 481.983C168.915 539.707 191.489 586.501 219.336 586.501Z" fill="white"/>
<path d="M219.336 586.501C247.184 586.501 269.758 539.707 269.758 481.983C269.758 424.26 247.184 377.466 219.336 377.466C191.489 377.466 168.915 424.26 168.915 481.983C168.915 539.707 191.489 586.501 219.336 586.501Z" fill="white"/>
<path d="M224.104 479.56C226.632 477.156 226.632 473.206 224.104 470.803C221.576 468.399 217.419 468.399 214.896 470.803C212.373 473.206 212.368 477.156 214.896 479.56L217.463 482L214.896 484.44C212.368 486.844 212.368 490.794 214.896 493.197C217.424 495.601 221.581 495.601 224.104 493.197C226.632 490.794 226.632 486.844 224.104 484.44L221.537 482M221.76 490.315C220.513 491.498 218.468 491.498 217.226 490.315C215.984 489.132 215.984 487.189 217.226 486.006L219.493 483.851L221.76 486.006C223.002 487.189 223.002 489.132 221.76 490.315ZM221.765 477.994L219.498 480.149L217.231 477.994C215.988 476.811 215.988 474.868 217.231 473.685C218.478 472.502 220.522 472.502 221.765 473.685C223.007 474.868 223.007 476.811 221.765 477.994Z" fill="black"/>
</svg>
