<svg width="440" height="956" viewBox="0 0 440 956" fill="none" xmlns="http://www.w3.org/2000/svg">
<g clip-path="url(#clip0_1_86)">
<rect width="440" height="956" fill="white"/>
<path d="M289.074 516.491C326.975 554.374 326.975 616.704 289.074 654.587C251.173 692.471 188.827 692.471 150.926 654.587C113.025 616.704 113.025 554.374 150.926 516.491C172.19 495.236 172.19 460.764 150.926 439.509C113.025 401.626 113.025 339.296 150.926 301.413C188.827 263.529 251.173 263.529 289.074 301.413C326.975 339.296 326.975 401.626 289.074 439.509C267.81 460.764 267.81 495.236 289.074 516.491Z" fill="black"/>
<circle cx="220.5" cy="574" r="50" fill="white"/>
<circle cx="220.5" cy="382" r="50" fill="white"/>
</g>
<defs>
<clipPath id="clip0_1_86">
<rect width="440" height="956" fill="white"/>
</clipPath>
</defs>
</svg>
