<svg width="440" height="956" viewBox="0 0 440 956" fill="none" xmlns="http://www.w3.org/2000/svg">
<rect width="440" height="956" fill="white"/>
<path d="M288.574 514.491C326.475 552.374 326.475 614.704 288.574 652.587C250.673 690.471 188.327 690.471 150.426 652.587C112.525 614.704 112.525 552.374 150.426 514.491C150.426 514.491 168.5 497.262 168.5 476C168.5 454.738 150.426 437.509 150.426 437.509C112.525 399.626 112.525 337.296 150.426 299.413C188.327 261.529 250.673 261.529 288.574 299.413C326.475 337.296 326.475 399.626 288.574 437.509C288.574 437.509 270 454.738 270 476C270 497.263 288.574 514.491 288.574 514.491Z" fill="black" stroke="black" stroke-width="0.2" stroke-miterlimit="10"/>
<path d="M288.574 514.491C326.475 552.374 326.475 614.704 288.574 652.587C250.673 690.471 188.327 690.471 150.426 652.587C112.525 614.704 112.525 552.374 150.426 514.491C150.426 514.491 168.5 497.262 168.5 476C168.5 454.738 150.426 437.509 150.426 437.509C112.525 399.626 112.525 337.296 150.426 299.413C188.327 261.529 250.673 261.529 288.574 299.413C326.475 337.296 326.475 399.626 288.574 437.509C288.574 437.509 270 454.738 270 476C270 497.263 288.574 514.491 288.574 514.491Z" fill="black" stroke="black" stroke-width="0.2" stroke-miterlimit="10"/>
<path d="M165.956 576.503C190.232 587.823 218.994 577.523 230.197 553.497C241.401 529.471 230.803 500.817 206.527 489.497C182.251 478.177 153.489 488.477 142.286 512.503C131.082 536.529 141.68 565.182 165.956 576.503Z" fill="white"/>
<path d="M232.956 464.503C257.232 475.823 285.994 465.523 297.197 441.497C308.401 417.471 297.803 388.817 273.527 377.497C249.251 366.177 220.489 376.477 209.286 400.503C198.082 424.529 208.68 453.182 232.956 464.503Z" fill="white"/>
<path d="M156 444L215 494.5L165 493.5H109.5L87 393L156 444Z" fill="white"/>
<path d="M288.5 514L225 460L275 462.5L379.5 467L343.5 562.5L288.5 514Z" fill="white"/>
</svg>
