<svg width="440" height="956" viewBox="0 0 440 956" fill="none" xmlns="http://www.w3.org/2000/svg">
<g clip-path="url(#clip0_1_54)">
<rect width="440" height="956" fill="white"/>
<path d="M289.574 516.491C327.475 554.374 327.475 616.704 289.574 654.587C251.673 692.471 189.327 692.471 151.426 654.587C113.525 616.704 113.525 554.374 151.426 516.491C151.426 516.491 169.5 499.262 169.5 478C169.5 456.738 151.426 439.509 151.426 439.509C113.525 401.626 113.525 339.296 151.426 301.413C189.327 263.529 251.673 263.529 289.574 301.413C327.475 339.296 327.475 401.626 289.574 439.509C289.574 439.509 271 456.738 271 478C271 499.263 289.574 516.491 289.574 516.491Z" fill="black" stroke="black" stroke-width="0.2" stroke-miterlimit="10"/>
<path d="M289.574 516.491C327.475 554.374 327.475 616.704 289.574 654.587C251.673 692.471 189.327 692.471 151.426 654.587C113.525 616.704 113.525 554.374 151.426 516.491C151.426 516.491 169.5 499.262 169.5 478C169.5 456.738 151.426 439.509 151.426 439.509C113.525 401.626 113.525 339.296 151.426 301.413C189.327 263.529 251.673 263.529 289.574 301.413C327.475 339.296 327.475 401.626 289.574 439.509C289.574 439.509 271 456.738 271 478C271 499.263 289.574 516.491 289.574 516.491Z" fill="black" stroke="black" stroke-width="0.2" stroke-miterlimit="10"/>
<path d="M169.956 589.503C194.232 600.823 222.994 590.523 234.197 566.497C245.401 542.471 234.803 513.817 210.527 502.497C186.251 491.177 157.489 501.477 146.286 525.503C135.082 549.529 145.68 578.182 169.956 589.503Z" fill="white"/>
<path d="M229.956 453.503C254.232 464.823 282.994 454.523 294.197 430.497C305.401 406.471 294.803 377.817 270.527 366.497C246.251 355.177 217.489 365.477 206.286 389.503C195.082 413.529 205.68 442.182 229.956 453.503Z" fill="white"/>
<path d="M64 359L123 409.5L73 408.5H17.5L-5 308L64 359Z" fill="white"/>
<path d="M381.5 585L318 531L368 533.5L472.5 538L436.5 633.5L381.5 585Z" fill="white"/>
</g>
<defs>
<clipPath id="clip0_1_54">
<rect width="440" height="956" fill="white"/>
</clipPath>
</defs>
</svg>
