<svg width="440" height="956" viewBox="0 0 440 956" fill="none" xmlns="http://www.w3.org/2000/svg">
<rect width="440" height="956" fill="white"/>
<path d="M147.298 550.38C186.362 511.207 250.638 511.207 289.702 550.38C328.766 589.553 328.766 654.017 289.702 693.19L285.189 697.718C265.771 717.194 265.771 748.809 285.189 768.282L289.702 772.81C328.766 811.983 328.766 876.447 289.702 915.62C250.638 954.793 186.362 954.793 147.298 915.62C108.234 876.447 108.234 811.983 147.298 772.81L151.811 768.282C171.229 748.806 171.229 717.19 151.811 697.718L147.298 693.19C108.234 654.017 108.234 589.553 147.298 550.38ZM253.717 698.911C234.353 679.497 203.003 679.497 183.639 698.911L183.619 698.931C164.392 718.211 164.392 749.944 183.619 769.225C202.827 788.485 234.47 788.505 253.717 769.205C272.944 749.925 272.944 718.192 253.717 698.911Z" fill="black"/>
<path d="M218.5 908C304.38 908 374 818.905 374 709C374 599.095 304.38 510 218.5 510C132.62 510 63 599.095 63 709C63 818.905 132.62 908 218.5 908Z" fill="white"/>
<path d="M218.5 908C304.38 908 374 818.905 374 709C374 599.095 304.38 510 218.5 510C132.62 510 63 599.095 63 709C63 818.905 132.62 908 218.5 908Z" fill="white"/>
<path d="M218.5 445C303.276 445 372 358.143 372 251C372 143.857 303.276 57 218.5 57C133.724 57 65 143.857 65 251C65 358.143 133.724 445 218.5 445Z" fill="white"/>
<path d="M229.325 444.524C225.922 444.853 222.505 445.011 219.089 444.997C222.529 444.981 225.942 444.822 229.325 444.524ZM148.298 50.3799C187.362 11.2067 251.638 11.2067 290.702 50.3799C305.671 65.3909 314.903 84.1158 318.4 103.708C291.551 74.5932 256.652 57 218.5 57C181.528 57 147.61 73.5205 121.113 101.038C124.949 82.4188 134.01 64.7075 148.298 50.3799Z" fill="black"/>
<path d="M258.103 455.539C279.299 435.388 279.299 402.265 258.103 382.114C236.907 361.962 202.053 361.962 180.897 382.114C159.741 402.265 159.701 435.388 180.897 455.539L202.417 476L180.897 496.46C159.701 516.612 159.701 549.735 180.897 569.886C202.093 590.038 236.947 590.038 258.103 569.886C279.299 549.735 279.299 516.612 258.103 496.46L236.583 476M238.447 545.72C227.99 555.641 210.847 555.641 200.431 545.72C190.016 535.798 190.016 519.507 200.431 509.586L219.439 491.519L238.447 509.586C248.862 519.507 248.862 535.798 238.447 545.72ZM238.487 442.414L219.48 460.481L200.472 442.414C190.056 432.493 190.056 416.202 200.472 406.28C210.928 396.359 228.072 396.359 238.487 406.28C248.903 416.202 248.903 432.493 238.487 442.414Z" fill="black"/>
</svg>
