<svg width="440" height="956" viewBox="0 0 440 956" fill="none" xmlns="http://www.w3.org/2000/svg">
<rect width="440" height="956" fill="white"/>
<path d="M148.152 298.033C109.283 336.745 109.283 400.449 148.152 439.16L152.642 443.633C171.964 462.877 171.964 494.12 152.642 513.367L148.152 517.84C109.283 556.551 109.283 620.255 148.152 658.967C187.022 697.678 250.978 697.678 289.848 658.967C328.717 620.255 328.717 556.551 289.848 517.84L285.358 513.367C266.036 494.123 266.036 462.88 285.358 443.633L289.848 439.16C328.717 400.449 328.717 336.745 289.848 298.033C250.978 259.322 187.022 259.322 148.152 298.033ZM254.042 514.278C234.891 533.351 203.404 533.331 184.292 514.298C165.161 495.245 165.161 463.885 184.292 444.832L184.312 444.813C203.579 425.628 234.774 425.628 254.042 444.813C273.173 463.866 273.173 495.225 254.042 514.278Z" fill="black"/>
<path d="M148.152 298.033C109.283 336.745 109.283 400.449 148.152 439.16L152.642 443.633C171.964 462.877 171.964 494.12 152.642 513.367L148.152 517.84C109.283 556.551 109.283 620.255 148.152 658.967C187.022 697.678 250.978 697.678 289.848 658.967C328.717 620.255 328.717 556.551 289.848 517.84L285.358 513.367C266.036 494.123 266.036 462.88 285.358 443.633L289.848 439.16C328.717 400.449 328.717 336.745 289.848 298.033C250.978 259.322 187.022 259.322 148.152 298.033ZM254.042 514.278C234.891 533.351 203.404 533.331 184.292 514.298C165.161 495.245 165.161 463.885 184.292 444.832L184.312 444.813C203.579 425.628 234.774 425.628 254.042 444.813C273.173 463.866 273.173 495.225 254.042 514.278Z" fill="black"/>
<path d="M218.5 587C269.586 587 311 539.318 311 480.5C311 421.682 269.586 374 218.5 374C167.414 374 126 421.682 126 480.5C126 539.318 167.414 587 218.5 587Z" fill="white"/>
<path d="M218.5 587C269.586 587 311 539.318 311 480.5C311 421.682 269.586 374 218.5 374C167.414 374 126 421.682 126 480.5C126 539.318 167.414 587 218.5 587Z" fill="white"/>
<path d="M227.354 474.307C232.215 469.685 232.215 462.088 227.354 457.466C222.492 452.845 214.498 452.845 209.646 457.466C204.794 462.088 204.785 469.685 209.646 474.307L214.582 479L209.646 483.693C204.785 488.315 204.785 495.912 209.646 500.534C214.508 505.155 222.502 505.155 227.354 500.534C232.215 495.912 232.215 488.315 227.354 483.693L222.418 479M222.846 494.991C220.447 497.266 216.515 497.266 214.126 494.991C211.738 492.715 211.738 488.979 214.126 486.703L218.486 482.559L222.846 486.703C225.234 488.979 225.234 492.715 222.846 494.991ZM222.855 471.297L218.495 475.441L214.136 471.297C211.747 469.021 211.747 465.285 214.136 463.009C216.534 460.734 220.466 460.734 222.855 463.009C225.244 465.285 225.244 469.021 222.855 471.297Z" fill="black"/>
</svg>
