<svg width="440" height="956" viewBox="0 0 440 956" fill="none" xmlns="http://www.w3.org/2000/svg">
<g clip-path="url(#clip0_1_38)">
<rect width="440" height="956" fill="white"/>
<path d="M288.574 516.491C326.475 554.374 326.475 616.704 288.574 654.587C250.673 692.471 188.327 692.471 150.426 654.587C112.525 616.704 112.525 554.374 150.426 516.491C150.426 516.491 168.5 499.262 168.5 478C168.5 456.738 150.426 439.509 150.426 439.509C112.525 401.626 112.525 339.296 150.426 301.413C188.327 263.529 250.673 263.529 288.574 301.413C326.475 339.296 326.475 401.626 288.574 439.509C288.574 439.509 270 456.738 270 478C270 499.263 288.574 516.491 288.574 516.491Z" fill="black" stroke="black" stroke-width="0.2" stroke-miterlimit="10"/>
<path d="M288.574 516.491C326.475 554.374 326.475 616.704 288.574 654.587C250.673 692.471 188.327 692.471 150.426 654.587C112.525 616.704 112.525 554.374 150.426 516.491C150.426 516.491 168.5 499.262 168.5 478C168.5 456.738 150.426 439.509 150.426 439.509C112.525 401.626 112.525 339.296 150.426 301.413C188.327 263.529 250.673 263.529 288.574 301.413C326.475 339.296 326.475 401.626 288.574 439.509C288.574 439.509 270 456.738 270 478C270 499.263 288.574 516.491 288.574 516.491Z" fill="black" stroke="black" stroke-width="0.2" stroke-miterlimit="10"/>
<path d="M198.956 570.503C223.232 581.823 251.994 571.523 263.197 547.497C274.401 523.471 263.803 494.817 239.527 483.497C215.251 472.177 186.489 482.477 175.286 506.503C164.082 530.529 174.68 559.182 198.956 570.503Z" fill="white"/>
<path d="M197.956 473.503C222.232 484.823 250.994 474.523 262.197 450.497C273.401 426.471 262.803 397.817 238.527 386.497C214.251 375.177 185.489 385.477 174.286 409.503C163.082 433.529 173.68 462.182 197.956 473.503Z" fill="white"/>
<path d="M400.5 481L337 427L387 429.5L491.5 434L455.5 529.5L400.5 481Z" fill="white"/>
<path d="M5 463L64 513.5L14 512.5H-41.5L-64 412L5 463Z" fill="white"/>
</g>
<defs>
<clipPath id="clip0_1_38">
<rect width="440" height="956" fill="white"/>
</clipPath>
</defs>
</svg>
