<svg width="282" height="418" viewBox="0 0 282 418" fill="none" xmlns="http://www.w3.org/2000/svg">
<g opacity="0.85" style="mix-blend-mode:multiply">
<path d="M204 104.683C204 93.338 199.123 86.6945 191.672 82.5868C183.119 77.8718 168.782 75.6447 151.757 81.5379C107.094 96.9984 78 128.704 78 162.683C78 172.951 81.9652 179.233 91.1943 184.819C102.195 191.478 119.499 195.683 139 195.683C168.206 195.683 199.55 202.264 224.853 219.381C251.72 237.556 270 266.737 270 304.683C270 346.74 250.382 380.549 218.939 399.898C188.808 418.44 151.418 421.646 116.861 412.343C116.762 412.316 116.661 412.288 116.562 412.261C72.3879 399.99 30.0858 370.062 10.1172 330.125C0.484617 310.86 8.29348 287.433 27.5586 277.801C46.8238 268.168 70.2502 275.977 79.8828 295.242C87.9004 311.277 109.538 329.314 137.295 337.065C154.67 341.703 169.218 338.91 178.061 333.469C185.618 328.818 192 320.627 192 304.683C192 294.63 188.28 288.811 181.147 283.986C172.45 278.103 157.793 273.683 139 273.683C110.502 273.683 77.8046 267.889 50.8057 251.548C22.0349 234.134 5.90838e-05 204.415 0 162.683C0 80.6628 66.9066 28.3685 126.243 7.82894C161.218 -4.27763 198.881 -2.50565 229.328 14.2791C260.877 31.6714 282 64.0289 282 104.683C282 126.222 264.539 143.683 243 143.683C221.461 143.683 204 126.222 204 104.683Z" fill="url(#paint0_linear_2018_2)"/>
</g>
<defs>
<linearGradient id="paint0_linear_2018_2" x1="141" y1="0" x2="141" y2="417.395" gradientUnits="userSpaceOnUse">
<stop stop-opacity="0"/>
<stop offset="0.55" stop-opacity="0"/>
<stop offset="1" stop-color="#1A0040" stop-opacity="0.55"/>
</linearGradient>
</defs>
</svg>
