<svg width="512" height="512" viewBox="0 0 512 512" fill="none" xmlns="http://www.w3.org/2000/svg">
<g clip-path="url(#clip0_2014_2)">
<rect width="512" height="512" rx="114" fill="url(#paint0_radial_2014_2)"/>
<g filter="url(#filter0_f_2014_2)" style="mix-blend-mode:screen">
<circle cx="150" cy="140" r="180" fill="url(#paint1_radial_2014_2)"/>
</g>
<g filter="url(#filter1_f_2014_2)" style="mix-blend-mode:screen">
<circle cx="390" cy="120" r="170" fill="url(#paint2_radial_2014_2)"/>
</g>
<g filter="url(#filter2_f_2014_2)" style="mix-blend-mode:screen">
<circle cx="130" cy="430" r="180" fill="url(#paint3_radial_2014_2)"/>
</g>
<g filter="url(#filter3_f_2014_2)" style="mix-blend-mode:screen">
<circle cx="410" cy="420" r="150" fill="url(#paint4_radial_2014_2)"/>
</g>
<g filter="url(#filter4_f_2014_2)" style="mix-blend-mode:screen">
<circle cx="260" cy="280" r="140" fill="url(#paint5_radial_2014_2)"/>
</g>
<foreignObject x="-24" y="-24" width="560" height="560"><div xmlns="http://www.w3.org/1999/xhtml" style="backdrop-filter:blur(12px);clip-path:url(#bgblur_1_2014_2_clip_path);height:100%;width:100%"></div></foreignObject><rect data-figma-bg-blur-radius="24" width="512" height="512" fill="#0D0A1A" fill-opacity="0.18"/>
<g filter="url(#filter6_f_2014_2)" style="mix-blend-mode:screen">
<circle cx="256" cy="256" r="190" fill="url(#paint6_radial_2014_2)"/>
</g>
<path d="M186.455 79.4419C224.395 41.5194 286.806 41.5194 324.746 79.4419C357.689 112.37 362.027 163.746 337.762 201.534C337.77 183.347 327.342 165.858 309.628 157.597C285.352 146.277 256.59 156.577 245.387 180.603C235.454 201.903 242.657 226.84 261.335 240.112L261.101 240.1L322.925 292.675C323.324 293.101 323.669 293.457 323.948 293.739C324.202 293.994 324.401 294.19 324.536 294.321C324.604 294.386 324.656 294.435 324.69 294.468C324.708 294.485 324.721 294.497 324.73 294.505C324.734 294.509 324.737 294.513 324.739 294.515C324.74 294.516 324.742 294.517 324.742 294.517L324.743 294.518L324.746 294.52C362.686 332.443 362.686 394.836 324.746 432.758C286.806 470.681 224.395 470.681 186.455 432.758C153.256 399.574 149.107 347.652 174.01 309.786C172.833 328.983 183.409 347.907 202.057 356.603C226.333 367.923 255.094 357.623 266.298 333.597C276.104 312.568 269.208 287.993 251.057 274.599L251.101 274.6L192.101 224.1L191.992 224.02C191 222.733 190.075 221.618 189.275 220.699C188.429 219.726 187.724 218.972 187.231 218.46C186.984 218.205 186.791 218.009 186.659 217.878C186.593 217.813 186.543 217.764 186.509 217.731C186.492 217.714 186.478 217.702 186.47 217.694C186.466 217.69 186.462 217.687 186.46 217.685C186.459 217.684 186.459 217.683 186.458 217.682L186.526 217.609L186.457 217.681L186.455 217.68C148.515 179.758 148.515 117.364 186.455 79.4419Z" fill="url(#paint7_linear_2014_2)"/>
<path d="M324.746 79.4419C286.806 41.5194 224.395 41.5194 186.455 79.4419C153.512 112.37 149.174 163.746 173.439 201.534C173.431 183.347 183.859 165.858 201.573 157.597C225.849 146.277 254.611 156.577 265.814 180.603C275.747 201.903 268.544 226.84 249.866 240.112L250.1 240.1L188.276 292.675C187.877 293.101 187.532 293.457 187.253 293.739C186.999 293.994 186.8 294.19 186.665 294.321C186.597 294.386 186.545 294.435 186.51 294.468C186.493 294.485 186.48 294.497 186.471 294.505C186.467 294.509 186.464 294.513 186.462 294.515C186.461 294.516 186.459 294.517 186.459 294.517L186.458 294.518L186.455 294.52C148.515 332.443 148.515 394.836 186.455 432.758C224.395 470.681 286.806 470.681 324.746 432.758C357.945 399.574 362.094 347.652 337.191 309.786C338.368 328.983 327.792 347.907 309.144 356.603C284.868 367.923 256.107 357.623 244.903 333.597C235.097 312.568 241.993 287.993 260.144 274.599L260.1 274.6L319.1 224.1L319.209 224.02C320.201 222.733 321.125 221.618 321.925 220.699C322.771 219.726 323.477 218.972 323.97 218.46C324.217 218.205 324.41 218.009 324.542 217.878C324.607 217.813 324.658 217.764 324.692 217.731C324.709 217.714 324.723 217.702 324.731 217.694C324.735 217.69 324.739 217.687 324.741 217.685C324.742 217.684 324.742 217.683 324.743 217.682L324.675 217.609L324.744 217.681L324.746 217.68C362.686 179.758 362.686 117.364 324.746 79.4419Z" fill="url(#paint8_linear_2014_2)"/>
<foreignObject x="97.8495" y="-8.392" width="293.201" height="508.2"><div xmlns="http://www.w3.org/1999/xhtml" style="backdrop-filter:blur(7.58px);clip-path:url(#bgblur_2_2014_2_clip_path);height:100%;width:100%"></div></foreignObject><g filter="url(#filter7_ddii_2014_2)" data-figma-bg-blur-radius="15.16">
<mask id="path-11-outside-1_2014_2" maskUnits="userSpaceOnUse" x="156.201" y="50" width="198" height="413" fill="black">
<rect fill="white" x="156.201" y="50" width="198" height="413"/>
<path d="M324.746 79.4419C286.806 41.5194 224.395 41.5194 186.455 79.4419C153.512 112.37 149.174 163.746 173.439 201.534C173.431 183.347 183.859 165.858 201.573 157.597C225.849 146.277 254.612 156.577 265.815 180.603C275.747 201.903 268.544 226.84 249.866 240.112L250.1 240.1L188.276 292.675C187.877 293.101 187.532 293.457 187.253 293.739C186.999 293.994 186.8 294.19 186.665 294.321C186.597 294.386 186.545 294.435 186.51 294.468C186.493 294.485 186.48 294.497 186.471 294.505C186.467 294.509 186.464 294.513 186.462 294.515C186.461 294.516 186.459 294.517 186.459 294.517L186.458 294.518L186.455 294.52C148.515 332.443 148.515 394.836 186.455 432.758C224.395 470.681 286.806 470.681 324.746 432.758C357.945 399.574 362.094 347.652 337.191 309.786C338.368 328.983 327.792 347.907 309.144 356.603C284.868 367.923 256.107 357.623 244.903 333.597C235.097 312.568 241.993 287.993 260.144 274.599L260.1 274.6L319.1 224.1L319.209 224.02C320.201 222.733 321.125 221.618 321.925 220.699C322.771 219.726 323.477 218.972 323.97 218.46C324.217 218.205 324.41 218.009 324.542 217.878C324.607 217.813 324.658 217.764 324.692 217.731C324.709 217.714 324.723 217.702 324.731 217.694C324.735 217.69 324.739 217.687 324.741 217.685C324.742 217.684 324.742 217.683 324.743 217.682L324.674 217.609L324.744 217.681L324.746 217.68C362.686 179.758 362.686 117.364 324.746 79.4419Z"/>
</mask>
<path d="M324.746 79.4419C286.806 41.5194 224.395 41.5194 186.455 79.4419C153.512 112.37 149.174 163.746 173.439 201.534C173.431 183.347 183.859 165.858 201.573 157.597C225.849 146.277 254.612 156.577 265.815 180.603C275.747 201.903 268.544 226.84 249.866 240.112L250.1 240.1L188.276 292.675C187.877 293.101 187.532 293.457 187.253 293.739C186.999 293.994 186.8 294.19 186.665 294.321C186.597 294.386 186.545 294.435 186.51 294.468C186.493 294.485 186.48 294.497 186.471 294.505C186.467 294.509 186.464 294.513 186.462 294.515C186.461 294.516 186.459 294.517 186.459 294.517L186.458 294.518L186.455 294.52C148.515 332.443 148.515 394.836 186.455 432.758C224.395 470.681 286.806 470.681 324.746 432.758C357.945 399.574 362.094 347.652 337.191 309.786C338.368 328.983 327.792 347.907 309.144 356.603C284.868 367.923 256.107 357.623 244.903 333.597C235.097 312.568 241.993 287.993 260.144 274.599L260.1 274.6L319.1 224.1L319.209 224.02C320.201 222.733 321.125 221.618 321.925 220.699C322.771 219.726 323.477 218.972 323.97 218.46C324.217 218.205 324.41 218.009 324.542 217.878C324.607 217.813 324.658 217.764 324.692 217.731C324.709 217.714 324.723 217.702 324.731 217.694C324.735 217.69 324.739 217.687 324.741 217.685C324.742 217.684 324.742 217.683 324.743 217.682L324.674 217.609L324.744 217.681L324.746 217.68C362.686 179.758 362.686 117.364 324.746 79.4419Z" fill="white" fill-opacity="0.068" style="mix-blend-mode:plus-lighter"/>
<g clip-path="url(#paint9_angular_2014_2_clip_path)" data-figma-skip-parse="true" mask="url(#path-11-outside-1_2014_2)"><g transform="matrix(-0.0976005 0 0 0.2051 353.201 51)"><foreignObject x="-2010.25" y="-2010.25" width="4020.49" height="4020.49"><div xmlns="http://www.w3.org/1999/xhtml" style="background:conic-gradient(from 90deg,rgba(255, 255, 255, 0.1839) 0deg,rgba(255, 255, 255, 0.352) 42.9837deg,rgba(255, 255, 255, 0) 132.984deg,rgba(255, 255, 255, 0.352) 222.984deg,rgba(255, 255, 255, 0) 312.984deg,rgba(255, 255, 255, 0.1839) 360deg);height:100%;width:100%;opacity:1"></div></foreignObject></g></g><path d="M324.746 79.4419L325.453 78.7346L325.453 78.7346L324.746 79.4419ZM186.455 79.4419L185.748 78.7346V78.7346L186.455 79.4419ZM173.439 201.534L174.439 201.533L174.441 204.944L172.598 202.074L173.439 201.534ZM201.573 157.597L201.15 156.691V156.691L201.573 157.597ZM265.815 180.603L266.721 180.18V180.18L265.815 180.603ZM249.866 240.112L249.916 241.111L246.493 241.282L249.287 239.297L249.866 240.112ZM250.1 240.1L250.05 239.101L252.991 238.954L250.748 240.862L250.1 240.1ZM188.276 292.675L187.547 291.991L187.585 291.95L187.628 291.914L188.276 292.675ZM187.253 293.739L187.963 294.443L187.963 294.443L187.253 293.739ZM186.665 294.321L187.359 295.04L187.359 295.04L186.665 294.321ZM186.51 294.468L185.823 293.742L185.823 293.742L186.51 294.468ZM186.471 294.505L185.786 293.777L185.788 293.775L186.471 294.505ZM186.462 294.515L187.143 295.247L187.142 295.248L186.462 294.515ZM186.459 294.517L185.752 293.81L185.764 293.797L185.778 293.785L186.459 294.517ZM186.458 294.518L187.165 295.225L187.095 295.295L187.012 295.35L186.458 294.518ZM186.455 294.52L185.748 293.813L185.818 293.743L185.9 293.688L186.455 294.52ZM186.455 432.758L185.748 433.466V433.466L186.455 432.758ZM324.746 432.758L325.453 433.466H325.453L324.746 432.758ZM337.191 309.786L336.193 309.847L335.963 306.099L338.027 309.236L337.191 309.786ZM309.144 356.603L309.567 357.509H309.567L309.144 356.603ZM244.903 333.597L243.997 334.02L243.997 334.02L244.903 333.597ZM260.144 274.599L260.122 273.599L263.278 273.529L260.738 275.404L260.144 274.599ZM260.1 274.6L260.122 275.6L257.322 275.662L259.45 273.84L260.1 274.6ZM319.1 224.1L318.45 223.34L318.477 223.317L318.506 223.296L319.1 224.1ZM319.209 224.02L320 224.631L319.915 224.741L319.803 224.824L319.209 224.02ZM321.925 220.699L321.171 220.042V220.042L321.925 220.699ZM323.97 218.46L323.25 217.766L323.25 217.766L323.97 218.46ZM324.542 217.878L323.837 217.169L323.837 217.169L324.542 217.878ZM324.692 217.731L325.389 218.448L325.389 218.448L324.692 217.731ZM324.731 217.694L325.425 218.414L325.424 218.415L324.731 217.694ZM324.741 217.685L324.048 216.964L324.052 216.96L324.741 217.685ZM324.743 217.682L325.474 217L326.144 217.718L325.438 218.401L324.743 217.682ZM324.674 217.609L323.943 218.291L325.396 216.917L324.674 217.609ZM324.744 217.681L325.191 218.576L324.532 218.905L324.022 218.373L324.744 217.681ZM324.746 217.68L325.453 218.387L325.338 218.502L325.193 218.575L324.746 217.68ZM324.746 79.4419L324.039 80.1492C286.489 42.6169 224.711 42.6169 187.162 80.1492L186.455 79.4419L185.748 78.7346C224.078 40.4218 287.122 40.4218 325.453 78.7346L324.746 79.4419ZM186.455 79.4419L187.162 80.1492C154.561 112.735 150.263 163.59 174.281 200.993L173.439 201.534L172.598 202.074C148.086 163.902 152.463 112.004 185.748 78.7346L186.455 79.4419ZM173.439 201.534L172.439 201.534C172.431 182.969 183.075 165.12 201.15 156.691L201.573 157.597L201.996 158.503C184.643 166.595 174.431 183.725 174.439 201.533L173.439 201.534ZM201.573 157.597L201.15 156.691C225.918 145.141 255.28 155.645 266.721 180.18L265.815 180.603L264.909 181.026C253.943 157.509 225.78 147.413 201.996 158.503L201.573 157.597ZM265.815 180.603L266.721 180.18C276.864 201.933 269.503 227.385 250.445 240.927L249.866 240.112L249.287 239.297C267.584 226.295 274.63 201.874 264.909 181.026L265.815 180.603ZM249.866 240.112L249.816 239.113L250.05 239.101L250.1 240.1L250.15 241.099L249.916 241.111L249.866 240.112ZM250.1 240.1L250.748 240.862L188.924 293.437L188.276 292.675L187.628 291.914L249.452 239.338L250.1 240.1ZM188.276 292.675L189.005 293.36C188.6 293.791 188.249 294.154 187.963 294.443L187.253 293.739L186.542 293.035C186.815 292.76 187.153 292.41 187.547 291.991L188.276 292.675ZM187.253 293.739L187.963 294.443C187.705 294.703 187.501 294.904 187.359 295.04L186.665 294.321L185.97 293.601C186.1 293.476 186.294 293.286 186.542 293.035L187.253 293.739ZM186.665 294.321L187.359 295.04C187.289 295.109 187.234 295.16 187.198 295.195L186.51 294.468L185.823 293.742C185.856 293.71 185.906 293.664 185.97 293.601L186.665 294.321ZM186.51 294.468L187.198 295.195C187.191 295.201 187.185 295.207 187.178 295.214C187.172 295.219 187.163 295.228 187.155 295.235L186.471 294.505L185.788 293.775C185.788 293.776 185.788 293.775 185.79 293.773C185.792 293.771 185.794 293.769 185.798 293.766C185.804 293.76 185.813 293.752 185.823 293.742L186.51 294.468ZM186.471 294.505L187.157 295.234C187.172 295.22 187.182 295.208 187.184 295.207C187.184 295.207 187.184 295.207 187.184 295.207C187.184 295.207 187.183 295.208 187.183 295.208C187.182 295.209 187.18 295.211 187.177 295.214C187.175 295.216 187.17 295.221 187.165 295.226C187.16 295.231 187.152 295.238 187.143 295.247L186.462 294.515L185.78 293.783C185.771 293.791 185.764 293.798 185.76 293.803C185.755 293.807 185.752 293.811 185.75 293.813C185.748 293.815 185.746 293.816 185.746 293.817C185.746 293.817 185.746 293.817 185.746 293.816C185.747 293.816 185.747 293.816 185.748 293.815C185.752 293.81 185.767 293.795 185.786 293.777L186.471 294.505ZM186.462 294.515L187.142 295.248C187.096 295.291 187.052 295.323 187.02 295.345C187.004 295.356 186.989 295.365 186.978 295.372C186.967 295.378 186.958 295.384 186.953 295.386C186.95 295.388 186.948 295.389 186.948 295.389C186.947 295.389 186.947 295.39 186.947 295.39C186.947 295.39 186.948 295.389 186.948 295.389C186.949 295.388 186.952 295.387 186.955 295.385C186.959 295.383 186.964 295.38 186.97 295.376C186.977 295.373 186.985 295.368 186.994 295.361C187.004 295.355 187.016 295.348 187.029 295.338C187.043 295.329 187.059 295.317 187.077 295.303C187.095 295.289 187.116 295.271 187.139 295.25L186.459 294.517L185.778 293.785C185.801 293.763 185.822 293.745 185.841 293.731C185.859 293.717 185.875 293.705 185.889 293.695C185.902 293.686 185.914 293.678 185.924 293.672C185.933 293.666 185.942 293.661 185.948 293.657C185.954 293.653 185.96 293.65 185.963 293.648C185.967 293.646 185.97 293.645 185.971 293.644C185.971 293.644 185.972 293.643 185.972 293.643C185.972 293.643 185.972 293.643 185.972 293.644C185.971 293.644 185.969 293.645 185.967 293.646C185.962 293.649 185.954 293.654 185.943 293.66C185.932 293.667 185.918 293.676 185.902 293.687C185.87 293.708 185.827 293.74 185.781 293.783L186.462 294.515ZM186.459 294.517L187.166 295.224L187.165 295.225L186.458 294.518L185.751 293.811L185.752 293.81L186.459 294.517ZM186.458 294.518L187.012 295.35L187.009 295.352L186.455 294.52L185.9 293.688L185.903 293.686L186.458 294.518ZM186.455 294.52L187.162 295.227C149.613 332.759 149.613 394.519 187.162 432.051L186.455 432.758L185.748 433.466C147.417 395.152 147.417 332.126 185.748 293.813L186.455 294.52ZM186.455 432.758L187.162 432.051C224.711 469.583 286.489 469.583 324.039 432.051L324.746 432.758L325.453 433.466C287.122 471.778 224.078 471.778 185.748 433.466L186.455 432.758ZM324.746 432.758L324.039 432.051C356.894 399.211 361.005 347.816 336.356 310.335L337.191 309.786L338.027 309.236C363.183 347.489 358.996 399.937 325.453 433.466L324.746 432.758ZM337.191 309.786L338.189 309.724C339.39 329.323 328.595 348.636 309.567 357.509L309.144 356.603L308.722 355.697C326.989 347.178 337.345 328.643 336.193 309.847L337.191 309.786ZM309.144 356.603L309.567 357.509C284.799 369.058 255.438 358.555 243.997 334.02L244.903 333.597L245.809 333.175C256.775 356.691 284.937 366.787 308.722 355.697L309.144 356.603ZM244.903 333.597L243.997 334.02C233.982 312.544 241.029 287.461 259.55 273.794L260.144 274.599L260.738 275.404C242.956 288.525 236.211 312.591 245.809 333.175L244.903 333.597ZM260.144 274.599L260.166 275.599L260.122 275.6L260.1 274.6L260.078 273.6L260.122 273.599L260.144 274.599ZM260.1 274.6L259.45 273.84L318.45 223.34L319.1 224.1L319.751 224.86L260.751 275.36L260.1 274.6ZM319.1 224.1L318.506 223.296L318.614 223.216L319.209 224.02L319.803 224.824L319.694 224.904L319.1 224.1ZM319.209 224.02L318.417 223.409C319.422 222.106 320.359 220.976 321.171 220.042L321.925 220.699L322.68 221.355C321.892 222.26 320.98 223.361 320 224.631L319.209 224.02ZM321.925 220.699L321.171 220.042C322.03 219.056 322.747 218.288 323.25 217.766L323.97 218.46L324.69 219.155C324.207 219.655 323.513 220.397 322.68 221.355L321.925 220.699ZM323.97 218.46L323.25 217.766C323.501 217.507 323.699 217.306 323.837 217.169L324.542 217.878L325.246 218.588C325.121 218.713 324.933 218.903 324.69 219.155L323.97 218.46ZM324.542 217.878L323.837 217.169C323.907 217.099 323.961 217.047 323.995 217.014L324.692 217.731L325.389 218.448C325.355 218.481 325.308 218.527 325.246 218.588L324.542 217.878ZM324.692 217.731L323.995 217.014C324.009 217 324.021 216.989 324.029 216.981C324.032 216.979 324.033 216.977 324.035 216.976C324.037 216.974 324.038 216.973 324.039 216.973C324.041 216.97 324.04 216.971 324.038 216.973L324.731 217.694L325.424 218.415C325.418 218.421 325.412 218.426 325.409 218.429C325.407 218.431 325.405 218.433 325.404 218.434C325.403 218.435 325.401 218.436 325.4 218.438C325.395 218.442 325.392 218.445 325.389 218.448L324.692 217.731ZM324.731 217.694L324.037 216.974C324.057 216.954 324.074 216.94 324.08 216.934C324.082 216.933 324.083 216.932 324.083 216.932C324.083 216.932 324.082 216.933 324.082 216.933C324.081 216.934 324.08 216.934 324.079 216.935C324.077 216.937 324.074 216.94 324.069 216.945C324.064 216.949 324.057 216.955 324.048 216.964L324.741 217.685L325.433 218.407C325.424 218.415 325.417 218.422 325.411 218.427C325.406 218.432 325.401 218.436 325.399 218.438C325.396 218.441 325.394 218.443 325.393 218.443C325.392 218.444 325.393 218.443 325.393 218.443C325.396 218.441 325.409 218.429 325.425 218.414L324.731 217.694ZM324.741 217.685L324.052 216.96C323.989 217.021 323.944 217.079 323.915 217.122C323.9 217.144 323.888 217.163 323.879 217.178C323.87 217.193 323.864 217.205 323.86 217.212C323.859 217.215 323.857 217.217 323.857 217.218C323.857 217.219 323.856 217.219 323.856 217.219C323.856 217.219 323.857 217.218 323.857 217.218C323.858 217.216 323.86 217.213 323.862 217.208C323.865 217.204 323.868 217.197 323.873 217.189C323.878 217.18 323.884 217.169 323.892 217.157C323.9 217.144 323.91 217.128 323.923 217.11C323.935 217.092 323.951 217.07 323.971 217.046C323.991 217.022 324.016 216.993 324.048 216.963L324.743 217.682L325.438 218.401C325.469 218.371 325.494 218.342 325.514 218.318C325.534 218.294 325.55 218.273 325.563 218.255C325.575 218.237 325.585 218.221 325.593 218.208C325.601 218.196 325.607 218.185 325.612 218.177C325.617 218.169 325.62 218.162 325.623 218.157C325.625 218.153 325.627 218.15 325.627 218.148C325.628 218.148 325.628 218.148 325.628 218.147C325.628 218.147 325.628 218.147 325.628 218.147C325.628 218.147 325.628 218.147 325.628 218.148C325.627 218.149 325.626 218.152 325.624 218.155C325.62 218.162 325.613 218.174 325.605 218.19C325.596 218.205 325.584 218.224 325.569 218.247C325.539 218.29 325.494 218.349 325.43 218.41L324.741 217.685ZM324.743 217.682L324.012 218.364L323.943 218.291L324.674 217.609L325.406 216.927L325.474 217L324.743 217.682ZM324.674 217.609L325.396 216.917L325.465 216.989L324.744 217.681L324.022 218.373L323.953 218.301L324.674 217.609ZM324.744 217.681L324.297 216.787L324.299 216.786L324.746 217.68L325.193 218.575L325.191 218.576L324.744 217.681ZM324.746 217.68L324.039 216.973C361.588 179.441 361.588 117.681 324.039 80.1492L324.746 79.4419L325.453 78.7346C363.783 117.048 363.783 180.074 325.453 218.387L324.746 217.68Z" data-figma-gradient-fill="{&#34;type&#34;:&#34;GRADIENT_ANGULAR&#34;,&#34;stops&#34;:[{&#34;color&#34;:{&#34;r&#34;:1.0,&#34;g&#34;:1.0,&#34;b&#34;:1.0,&#34;a&#34;:0.35199999809265137},&#34;position&#34;:0.11939926445484161},{&#34;color&#34;:{&#34;r&#34;:1.0,&#34;g&#34;:1.0,&#34;b&#34;:1.0,&#34;a&#34;:0.0},&#34;position&#34;:0.36939927935600281},{&#34;color&#34;:{&#34;r&#34;:1.0,&#34;g&#34;:1.0,&#34;b&#34;:1.0,&#34;a&#34;:0.35199999809265137},&#34;position&#34;:0.61939924955368042},{&#34;color&#34;:{&#34;r&#34;:1.0,&#34;g&#34;:1.0,&#34;b&#34;:1.0,&#34;a&#34;:0.0},&#34;position&#34;:0.86939924955368042}],&#34;stopsVar&#34;:[{&#34;color&#34;:{&#34;r&#34;:1.0,&#34;g&#34;:1.0,&#34;b&#34;:1.0,&#34;a&#34;:0.35199999809265137},&#34;position&#34;:0.11939926445484161},{&#34;color&#34;:{&#34;r&#34;:1.0,&#34;g&#34;:1.0,&#34;b&#34;:1.0,&#34;a&#34;:0.0},&#34;position&#34;:0.36939927935600281},{&#34;color&#34;:{&#34;r&#34;:1.0,&#34;g&#34;:1.0,&#34;b&#34;:1.0,&#34;a&#34;:0.35199999809265137},&#34;position&#34;:0.61939924955368042},{&#34;color&#34;:{&#34;r&#34;:1.0,&#34;g&#34;:1.0,&#34;b&#34;:1.0,&#34;a&#34;:0.0},&#34;position&#34;:0.86939924955368042}],&#34;transform&#34;:{&#34;m00&#34;:-195.20097351074219,&#34;m01&#34;:0.0,&#34;m02&#34;:450.80142211914062,&#34;m10&#34;:0.0,&#34;m11&#34;:410.20022583007812,&#34;m12&#34;:-154.10011291503906},&#34;opacity&#34;:1.0,&#34;blendMode&#34;:&#34;LINEAR_DODGE&#34;,&#34;visible&#34;:true}" style="mix-blend-mode:plus-lighter" mask="url(#path-11-outside-1_2014_2)"/>
</g>
<ellipse cx="228.51" cy="98.508" rx="8.5" ry="19" transform="rotate(104.095 228.51 98.508)" fill="url(#paint10_radial_2014_2)"/>
<ellipse cx="258.805" cy="435.699" rx="8.5" ry="19" transform="rotate(-34.7026 258.805 435.699)" fill="url(#paint11_radial_2014_2)"/>
<ellipse cx="205.919" cy="191.259" rx="8.5" ry="19" transform="rotate(-169.168 205.919 191.259)" fill="url(#paint12_radial_2014_2)" fill-opacity="0.5"/>
<ellipse cx="334.02" cy="189.629" rx="8.5" ry="19" transform="rotate(-175.327 334.02 189.629)" fill="url(#paint13_radial_2014_2)"/>
<ellipse cx="286.241" cy="98.013" rx="8.5" ry="19" transform="rotate(-71.9727 286.241 98.013)" fill="url(#paint14_radial_2014_2)"/>
<ellipse cx="323.157" cy="165.319" rx="8.5" ry="19" transform="rotate(-143.373 323.157 165.319)" fill="url(#paint15_radial_2014_2)"/>
<ellipse cx="306.026" cy="204.468" rx="8.5" ry="19" transform="rotate(27.1011 306.026 204.468)" fill="url(#paint16_radial_2014_2)"/>
<ellipse cx="346.297" cy="134.72" rx="8.5" ry="19" transform="rotate(-162.087 346.297 134.72)" fill="url(#paint17_radial_2014_2)"/>
<ellipse cx="282.043" cy="137.68" rx="8.5" ry="19" transform="rotate(105.387 282.043 137.68)" fill="url(#paint18_radial_2014_2)"/>
<ellipse cx="308.078" cy="159.312" rx="8.5" ry="19" transform="rotate(-98.817 308.078 159.312)" fill="url(#paint19_radial_2014_2)"/>
<ellipse cx="220.876" cy="417.702" rx="8.5" ry="19" transform="rotate(-30.0707 220.876 417.702)" fill="url(#paint20_radial_2014_2)" fill-opacity="0.49"/>
<ellipse cx="321.466" cy="130.126" rx="8.5" ry="19" transform="rotate(170.675 321.466 130.126)" fill="url(#paint21_radial_2014_2)"/>
<ellipse cx="320.177" cy="112.742" rx="8.5" ry="19" transform="rotate(-151.122 320.177 112.742)" fill="url(#paint22_radial_2014_2)"/>
<ellipse cx="320.149" cy="386.026" rx="8.5" ry="19" transform="rotate(-171.716 320.149 386.026)" fill="url(#paint23_radial_2014_2)"/>
<ellipse cx="194.802" cy="169" rx="8.5" ry="19" transform="rotate(-116.136 194.802 169)" fill="url(#paint24_radial_2014_2)" fill-opacity="0.5"/>
<ellipse cx="182.59" cy="147.967" rx="8.5" ry="19" transform="rotate(86.1865 182.59 147.967)" fill="url(#paint25_radial_2014_2)"/>
<ellipse cx="284.08" cy="178.925" rx="8.5" ry="19" transform="rotate(82.8911 284.08 178.925)" fill="url(#paint26_radial_2014_2)"/>
<ellipse cx="289.565" cy="216.188" rx="8.5" ry="19" transform="rotate(-74.7862 289.565 216.188)" fill="url(#paint27_radial_2014_2)"/>
<ellipse cx="294.66" cy="167.091" rx="8.5" ry="19" transform="rotate(121.093 294.66 167.091)" fill="url(#paint28_radial_2014_2)" fill-opacity="0.66"/>
<ellipse cx="310.421" cy="437.247" rx="8.5" ry="19" transform="rotate(53.9454 310.421 437.247)" fill="url(#paint29_radial_2014_2)"/>
<ellipse cx="300.64" cy="344.07" rx="8.5" ry="19" transform="rotate(149.769 300.64 344.07)" fill="url(#paint30_radial_2014_2)" fill-opacity="0.44"/>
<ellipse cx="279.806" cy="290.789" rx="8.5" ry="19" transform="rotate(148.268 279.806 290.789)" fill="url(#paint31_radial_2014_2)" fill-opacity="0.44"/>
<ellipse cx="283.814" cy="244.661" rx="8.5" ry="19" transform="rotate(65.3034 283.814 244.661)" fill="url(#paint32_radial_2014_2)"/>
<ellipse cx="248.987" cy="148.731" rx="8.5" ry="19" transform="rotate(118.266 248.987 148.731)" fill="url(#paint33_radial_2014_2)"/>
<ellipse cx="226.341" cy="193.937" rx="8.5" ry="19" transform="rotate(-168.121 226.341 193.937)" fill="url(#paint34_radial_2014_2)" fill-opacity="0.5"/>
<ellipse cx="293.501" cy="448.742" rx="8.5" ry="19" transform="rotate(53.0816 293.501 448.742)" fill="url(#paint35_radial_2014_2)"/>
<ellipse cx="275.031" cy="213.988" rx="8.5" ry="19" transform="rotate(7.90068 275.031 213.988)" fill="url(#paint36_radial_2014_2)"/>
<ellipse cx="308.253" cy="214.374" rx="8.5" ry="19" transform="rotate(46.103 308.253 214.374)" fill="url(#paint37_radial_2014_2)"/>
<ellipse cx="243.843" cy="440.791" rx="8.5" ry="19" transform="rotate(-40.6669 243.843 440.791)" fill="url(#paint38_radial_2014_2)"/>
<ellipse cx="280.341" cy="430.322" rx="8.5" ry="19" transform="rotate(-72.9049 280.341 430.322)" fill="url(#paint39_radial_2014_2)"/>
<ellipse cx="222.566" cy="221.472" rx="8.5" ry="19" transform="rotate(122.975 222.566 221.472)" fill="url(#paint40_radial_2014_2)" fill-opacity="0.5"/>
<ellipse cx="258.793" cy="140.767" rx="8.5" ry="19" transform="rotate(-21.8236 258.793 140.767)" fill="url(#paint41_radial_2014_2)"/>
<ellipse cx="325.337" cy="180.757" rx="8.5" ry="19" transform="rotate(13.8618 325.337 180.757)" fill="url(#paint42_radial_2014_2)"/>
<ellipse cx="294.124" cy="118.782" rx="8.5" ry="19" transform="rotate(-90.8528 294.124 118.782)" fill="url(#paint43_radial_2014_2)"/>
<ellipse cx="318.124" cy="422.782" rx="8.5" ry="19" transform="rotate(-126.276 318.124 422.782)" fill="url(#paint44_radial_2014_2)"/>
<ellipse cx="253.544" cy="455.799" rx="8.5" ry="19" transform="rotate(93.9819 253.544 455.799)" fill="url(#paint45_radial_2014_2)"/>
<ellipse cx="282.243" cy="437.954" rx="8.5" ry="19" transform="rotate(67.1847 282.243 437.954)" fill="url(#paint46_radial_2014_2)"/>
<ellipse cx="290.814" cy="230.661" rx="8.5" ry="19" transform="rotate(65.3034 290.814 230.661)" fill="url(#paint47_radial_2014_2)" fill-opacity="0.69"/>
<ellipse cx="226.201" cy="134.127" rx="8.5" ry="19" transform="rotate(-58.7335 226.201 134.127)" fill="url(#paint48_radial_2014_2)"/>
<ellipse cx="340.746" cy="166.48" rx="8.5" ry="19" transform="rotate(145.607 340.746 166.48)" fill="url(#paint49_radial_2014_2)"/>
<ellipse cx="321.585" cy="205.473" rx="8.5" ry="19" transform="rotate(12.9981 321.585 205.473)" fill="url(#paint50_radial_2014_2)"/>
<ellipse cx="263.676" cy="450.049" rx="8.5" ry="19" transform="rotate(80.2223 263.676 450.049)" fill="url(#paint51_radial_2014_2)"/>
<ellipse cx="236.854" cy="113.644" rx="8.5" ry="19" transform="rotate(77.5252 236.854 113.644)" fill="url(#paint52_radial_2014_2)"/>
<ellipse cx="232.01" cy="76.6493" rx="8.5" ry="19" transform="rotate(-96.814 232.01 76.6493)" fill="url(#paint53_radial_2014_2)"/>
<ellipse cx="333.208" cy="114.296" rx="8.5" ry="19" transform="rotate(-143.086 333.208 114.296)" fill="url(#paint54_radial_2014_2)"/>
<ellipse cx="250.676" cy="265.049" rx="8.5" ry="19" transform="rotate(39.6938 250.676 265.049)" fill="url(#paint55_radial_2014_2)"/>
<ellipse cx="295.811" cy="202.245" rx="8.5" ry="19" transform="rotate(-112.988 295.811 202.245)" fill="url(#paint56_radial_2014_2)"/>
<ellipse cx="229.919" cy="119.504" rx="8.5" ry="19" transform="rotate(-60.0259 229.919 119.504)" fill="url(#paint57_radial_2014_2)"/>
<ellipse cx="250.345" cy="93.9511" rx="8.5" ry="19" transform="rotate(142.297 250.345 93.9511)" fill="url(#paint58_radial_2014_2)"/>
<ellipse cx="267.208" cy="93.5669" rx="8.5" ry="19" transform="rotate(161.177 267.208 93.5669)" fill="url(#paint59_radial_2014_2)"/>
<ellipse cx="224.524" cy="443.746" rx="8.5" ry="19" transform="rotate(86.1834 224.524 443.746)" fill="url(#paint60_radial_2014_2)"/>
<ellipse cx="305.806" cy="135.714" rx="8.5" ry="19" transform="rotate(-150.259 305.806 135.714)" fill="url(#paint61_radial_2014_2)"/>
<ellipse cx="294.806" cy="410.714" rx="8.5" ry="19" transform="rotate(-150.259 294.806 410.714)" fill="url(#paint62_radial_2014_2)"/>
<ellipse cx="270.305" cy="128.662" rx="8.5" ry="19" transform="rotate(92.1477 270.305 128.662)" fill="url(#paint63_radial_2014_2)"/>
<ellipse cx="272.304" cy="231.117" rx="8.5" ry="19" transform="rotate(52.0641 272.304 231.117)" fill="url(#paint64_radial_2014_2)"/>
<ellipse cx="237.135" cy="451.496" rx="8.5" ry="19" transform="rotate(99.4227 237.135 451.496)" fill="url(#paint65_radial_2014_2)"/>
<ellipse cx="278.868" cy="167.418" rx="8.5" ry="19" transform="rotate(-137.019 278.868 167.418)" fill="url(#paint66_radial_2014_2)" fill-opacity="0.66"/>
<ellipse cx="206.381" cy="131.608" rx="8.5" ry="19" transform="rotate(-77.6136 206.381 131.608)" fill="url(#paint67_radial_2014_2)"/>
<ellipse cx="305.832" cy="228.997" rx="8.5" ry="19" transform="rotate(48.2255 305.832 228.997)" fill="url(#paint68_radial_2014_2)"/>
<ellipse cx="279.706" cy="450.158" rx="8.5" ry="19" transform="rotate(47.1174 279.706 450.158)" fill="url(#paint69_radial_2014_2)"/>
<ellipse cx="298.62" cy="430.85" rx="8.5" ry="19" transform="rotate(14.8793 298.62 430.85)" fill="url(#paint70_radial_2014_2)"/>
<ellipse cx="312.189" cy="183.461" rx="8.5" ry="19" transform="rotate(-25.2042 312.189 183.461)" fill="url(#paint71_radial_2014_2)" fill-opacity="0.66"/>
<ellipse cx="232.118" cy="170.711" rx="8.5" ry="19" transform="rotate(-129.919 232.118 170.711)" fill="url(#paint72_radial_2014_2)" fill-opacity="0.48"/>
<ellipse cx="330.777" cy="136.213" rx="8.5" ry="19" transform="rotate(-176.19 330.777 136.213)" fill="url(#paint73_radial_2014_2)"/>
<ellipse cx="295.443" cy="188.448" rx="8.5" ry="19" transform="rotate(-135.016 295.443 188.448)" fill="url(#paint74_radial_2014_2)" fill-opacity="0.66"/>
<ellipse cx="282.081" cy="187.782" rx="8.5" ry="19" transform="rotate(-156.22 282.081 187.782)" fill="url(#paint75_radial_2014_2)"/>
<ellipse cx="279.437" cy="157.281" rx="8.5" ry="19" transform="rotate(-118.017 279.437 157.281)" fill="url(#paint76_radial_2014_2)"/>
<ellipse cx="206.994" cy="350.525" rx="8.5" ry="19" transform="rotate(14.527 206.994 350.525)" fill="url(#paint77_radial_2014_2)"/>
</g>
<defs>
<filter id="filter0_f_2014_2" x="-100" y="-110" width="500" height="500" filterUnits="userSpaceOnUse" color-interpolation-filters="sRGB">
<feFlood flood-opacity="0" result="BackgroundImageFix"/>
<feBlend mode="normal" in="SourceGraphic" in2="BackgroundImageFix" result="shape"/>
<feGaussianBlur stdDeviation="35" result="effect1_foregroundBlur_2014_2"/>
</filter>
<filter id="filter1_f_2014_2" x="155" y="-115" width="470" height="470" filterUnits="userSpaceOnUse" color-interpolation-filters="sRGB">
<feFlood flood-opacity="0" result="BackgroundImageFix"/>
<feBlend mode="normal" in="SourceGraphic" in2="BackgroundImageFix" result="shape"/>
<feGaussianBlur stdDeviation="32.5" result="effect1_foregroundBlur_2014_2"/>
</filter>
<filter id="filter2_f_2014_2" x="-120" y="180" width="500" height="500" filterUnits="userSpaceOnUse" color-interpolation-filters="sRGB">
<feFlood flood-opacity="0" result="BackgroundImageFix"/>
<feBlend mode="normal" in="SourceGraphic" in2="BackgroundImageFix" result="shape"/>
<feGaussianBlur stdDeviation="35" result="effect1_foregroundBlur_2014_2"/>
</filter>
<filter id="filter3_f_2014_2" x="200" y="210" width="420" height="420" filterUnits="userSpaceOnUse" color-interpolation-filters="sRGB">
<feFlood flood-opacity="0" result="BackgroundImageFix"/>
<feBlend mode="normal" in="SourceGraphic" in2="BackgroundImageFix" result="shape"/>
<feGaussianBlur stdDeviation="30" result="effect1_foregroundBlur_2014_2"/>
</filter>
<filter id="filter4_f_2014_2" x="65" y="85" width="390" height="390" filterUnits="userSpaceOnUse" color-interpolation-filters="sRGB">
<feFlood flood-opacity="0" result="BackgroundImageFix"/>
<feBlend mode="normal" in="SourceGraphic" in2="BackgroundImageFix" result="shape"/>
<feGaussianBlur stdDeviation="27.5" result="effect1_foregroundBlur_2014_2"/>
</filter>
<clipPath id="bgblur_1_2014_2_clip_path" transform="translate(24 24)"><rect width="512" height="512"/>
</clipPath><filter id="filter6_f_2014_2" x="26" y="26" width="460" height="460" filterUnits="userSpaceOnUse" color-interpolation-filters="sRGB">
<feFlood flood-opacity="0" result="BackgroundImageFix"/>
<feBlend mode="normal" in="SourceGraphic" in2="BackgroundImageFix" result="shape"/>
<feGaussianBlur stdDeviation="20" result="effect1_foregroundBlur_2014_2"/>
</filter>
<filter id="filter7_ddii_2014_2" x="97.8495" y="-8.392" width="293.201" height="508.2" filterUnits="userSpaceOnUse" color-interpolation-filters="sRGB">
<feFlood flood-opacity="0" result="BackgroundImageFix"/>
<feColorMatrix in="SourceAlpha" type="matrix" values="0 0 0 0 0 0 0 0 0 0 0 0 0 0 0 0 0 0 127 0" result="hardAlpha"/>
<feOffset dx="-1.8584" dy="-1.732"/>
<feGaussianBlur stdDeviation="6"/>
<feColorMatrix type="matrix" values="0 0 0 0 0 0 0 0 0 0 0 0 0 0 0 0 0 0 0.15 0"/>
<feBlend mode="plus-darker" in2="BackgroundImageFix" result="effect1_dropShadow_2014_2"/>
<feColorMatrix in="SourceAlpha" type="matrix" values="0 0 0 0 0 0 0 0 0 0 0 0 0 0 0 0 0 0 127 0" result="hardAlpha"/>
<feOffset dx="-11.1504" dy="-10.392"/>
<feGaussianBlur stdDeviation="24"/>
<feColorMatrix type="matrix" values="0 0 0 0 0 0 0 0 0 0 0 0 0 0 0 0 0 0 0.15 0"/>
<feBlend mode="plus-darker" in2="effect1_dropShadow_2014_2" result="effect2_dropShadow_2014_2"/>
<feBlend mode="normal" in="SourceGraphic" in2="effect2_dropShadow_2014_2" result="shape"/>
<feColorMatrix in="SourceAlpha" type="matrix" values="0 0 0 0 0 0 0 0 0 0 0 0 0 0 0 0 0 0 127 0" result="hardAlpha"/>
<feOffset dx="1.21725" dy="1.13446"/>
<feGaussianBlur stdDeviation="2.31"/>
<feComposite in2="hardAlpha" operator="arithmetic" k2="-1" k3="1"/>
<feColorMatrix type="matrix" values="0 0 0 0 1 0 0 0 0 1 0 0 0 0 1 0 0 0 0.126 0"/>
<feBlend mode="plus-lighter" in2="shape" result="effect3_innerShadow_2014_2"/>
<feColorMatrix in="SourceAlpha" type="matrix" values="0 0 0 0 0 0 0 0 0 0 0 0 0 0 0 0 0 0 127 0" result="hardAlpha"/>
<feOffset dx="2.14645" dy="2.00046"/>
<feGaussianBlur stdDeviation="4.62"/>
<feComposite in2="hardAlpha" operator="arithmetic" k2="-1" k3="1"/>
<feColorMatrix type="matrix" values="0 0 0 0 1 0 0 0 0 1 0 0 0 0 1 0 0 0 0.126 0"/>
<feBlend mode="plus-lighter" in2="effect3_innerShadow_2014_2" result="effect4_innerShadow_2014_2"/>
</filter>
<clipPath id="bgblur_2_2014_2_clip_path" transform="translate(-97.8495 8.392)"><path d="M324.746 79.4419C286.806 41.5194 224.395 41.5194 186.455 79.4419C153.512 112.37 149.174 163.746 173.439 201.534C173.431 183.347 183.859 165.858 201.573 157.597C225.849 146.277 254.612 156.577 265.815 180.603C275.747 201.903 268.544 226.84 249.866 240.112L250.1 240.1L188.276 292.675C187.877 293.101 187.532 293.457 187.253 293.739C186.999 293.994 186.8 294.19 186.665 294.321C186.597 294.386 186.545 294.435 186.51 294.468C186.493 294.485 186.48 294.497 186.471 294.505C186.467 294.509 186.464 294.513 186.462 294.515C186.461 294.516 186.459 294.517 186.459 294.517L186.458 294.518L186.455 294.52C148.515 332.443 148.515 394.836 186.455 432.758C224.395 470.681 286.806 470.681 324.746 432.758C357.945 399.574 362.094 347.652 337.191 309.786C338.368 328.983 327.792 347.907 309.144 356.603C284.868 367.923 256.107 357.623 244.903 333.597C235.097 312.568 241.993 287.993 260.144 274.599L260.1 274.6L319.1 224.1L319.209 224.02C320.201 222.733 321.125 221.618 321.925 220.699C322.771 219.726 323.477 218.972 323.97 218.46C324.217 218.205 324.41 218.009 324.542 217.878C324.607 217.813 324.658 217.764 324.692 217.731C324.709 217.714 324.723 217.702 324.731 217.694C324.735 217.69 324.739 217.687 324.741 217.685C324.742 217.684 324.742 217.683 324.743 217.682L324.674 217.609L324.744 217.681L324.746 217.68C362.686 179.758 362.686 117.364 324.746 79.4419Z"/>
</clipPath><clipPath id="paint9_angular_2014_2_clip_path"><path d="M324.746 79.4419L325.453 78.7346L325.453 78.7346L324.746 79.4419ZM186.455 79.4419L185.748 78.7346V78.7346L186.455 79.4419ZM173.439 201.534L174.439 201.533L174.441 204.944L172.598 202.074L173.439 201.534ZM201.573 157.597L201.15 156.691V156.691L201.573 157.597ZM265.815 180.603L266.721 180.18V180.18L265.815 180.603ZM249.866 240.112L249.916 241.111L246.493 241.282L249.287 239.297L249.866 240.112ZM250.1 240.1L250.05 239.101L252.991 238.954L250.748 240.862L250.1 240.1ZM188.276 292.675L187.547 291.991L187.585 291.95L187.628 291.914L188.276 292.675ZM187.253 293.739L187.963 294.443L187.963 294.443L187.253 293.739ZM186.665 294.321L187.359 295.04L187.359 295.04L186.665 294.321ZM186.51 294.468L185.823 293.742L185.823 293.742L186.51 294.468ZM186.471 294.505L185.786 293.777L185.788 293.775L186.471 294.505ZM186.462 294.515L187.143 295.247L187.142 295.248L186.462 294.515ZM186.459 294.517L185.752 293.81L185.764 293.797L185.778 293.785L186.459 294.517ZM186.458 294.518L187.165 295.225L187.095 295.295L187.012 295.35L186.458 294.518ZM186.455 294.52L185.748 293.813L185.818 293.743L185.9 293.688L186.455 294.52ZM186.455 432.758L185.748 433.466V433.466L186.455 432.758ZM324.746 432.758L325.453 433.466H325.453L324.746 432.758ZM337.191 309.786L336.193 309.847L335.963 306.099L338.027 309.236L337.191 309.786ZM309.144 356.603L309.567 357.509H309.567L309.144 356.603ZM244.903 333.597L243.997 334.02L243.997 334.02L244.903 333.597ZM260.144 274.599L260.122 273.599L263.278 273.529L260.738 275.404L260.144 274.599ZM260.1 274.6L260.122 275.6L257.322 275.662L259.45 273.84L260.1 274.6ZM319.1 224.1L318.45 223.34L318.477 223.317L318.506 223.296L319.1 224.1ZM319.209 224.02L320 224.631L319.915 224.741L319.803 224.824L319.209 224.02ZM321.925 220.699L321.171 220.042V220.042L321.925 220.699ZM323.97 218.46L323.25 217.766L323.25 217.766L323.97 218.46ZM324.542 217.878L323.837 217.169L323.837 217.169L324.542 217.878ZM324.692 217.731L325.389 218.448L325.389 218.448L324.692 217.731ZM324.731 217.694L325.425 218.414L325.424 218.415L324.731 217.694ZM324.741 217.685L324.048 216.964L324.052 216.96L324.741 217.685ZM324.743 217.682L325.474 217L326.144 217.718L325.438 218.401L324.743 217.682ZM324.674 217.609L323.943 218.291L325.396 216.917L324.674 217.609ZM324.744 217.681L325.191 218.576L324.532 218.905L324.022 218.373L324.744 217.681ZM324.746 217.68L325.453 218.387L325.338 218.502L325.193 218.575L324.746 217.68ZM324.746 79.4419L324.039 80.1492C286.489 42.6169 224.711 42.6169 187.162 80.1492L186.455 79.4419L185.748 78.7346C224.078 40.4218 287.122 40.4218 325.453 78.7346L324.746 79.4419ZM186.455 79.4419L187.162 80.1492C154.561 112.735 150.263 163.59 174.281 200.993L173.439 201.534L172.598 202.074C148.086 163.902 152.463 112.004 185.748 78.7346L186.455 79.4419ZM173.439 201.534L172.439 201.534C172.431 182.969 183.075 165.12 201.15 156.691L201.573 157.597L201.996 158.503C184.643 166.595 174.431 183.725 174.439 201.533L173.439 201.534ZM201.573 157.597L201.15 156.691C225.918 145.141 255.28 155.645 266.721 180.18L265.815 180.603L264.909 181.026C253.943 157.509 225.78 147.413 201.996 158.503L201.573 157.597ZM265.815 180.603L266.721 180.18C276.864 201.933 269.503 227.385 250.445 240.927L249.866 240.112L249.287 239.297C267.584 226.295 274.63 201.874 264.909 181.026L265.815 180.603ZM249.866 240.112L249.816 239.113L250.05 239.101L250.1 240.1L250.15 241.099L249.916 241.111L249.866 240.112ZM250.1 240.1L250.748 240.862L188.924 293.437L188.276 292.675L187.628 291.914L249.452 239.338L250.1 240.1ZM188.276 292.675L189.005 293.36C188.6 293.791 188.249 294.154 187.963 294.443L187.253 293.739L186.542 293.035C186.815 292.76 187.153 292.41 187.547 291.991L188.276 292.675ZM187.253 293.739L187.963 294.443C187.705 294.703 187.501 294.904 187.359 295.04L186.665 294.321L185.97 293.601C186.1 293.476 186.294 293.286 186.542 293.035L187.253 293.739ZM186.665 294.321L187.359 295.04C187.289 295.109 187.234 295.16 187.198 295.195L186.51 294.468L185.823 293.742C185.856 293.71 185.906 293.664 185.97 293.601L186.665 294.321ZM186.51 294.468L187.198 295.195C187.191 295.201 187.185 295.207 187.178 295.214C187.172 295.219 187.163 295.228 187.155 295.235L186.471 294.505L185.788 293.775C185.788 293.776 185.788 293.775 185.79 293.773C185.792 293.771 185.794 293.769 185.798 293.766C185.804 293.76 185.813 293.752 185.823 293.742L186.51 294.468ZM186.471 294.505L187.157 295.234C187.172 295.22 187.182 295.208 187.184 295.207C187.184 295.207 187.184 295.207 187.184 295.207C187.184 295.207 187.183 295.208 187.183 295.208C187.182 295.209 187.18 295.211 187.177 295.214C187.175 295.216 187.17 295.221 187.165 295.226C187.16 295.231 187.152 295.238 187.143 295.247L186.462 294.515L185.78 293.783C185.771 293.791 185.764 293.798 185.76 293.803C185.755 293.807 185.752 293.811 185.75 293.813C185.748 293.815 185.746 293.816 185.746 293.817C185.746 293.817 185.746 293.817 185.746 293.816C185.747 293.816 185.747 293.816 185.748 293.815C185.752 293.81 185.767 293.795 185.786 293.777L186.471 294.505ZM186.462 294.515L187.142 295.248C187.096 295.291 187.052 295.323 187.02 295.345C187.004 295.356 186.989 295.365 186.978 295.372C186.967 295.378 186.958 295.384 186.953 295.386C186.95 295.388 186.948 295.389 186.948 295.389C186.947 295.389 186.947 295.39 186.947 295.39C186.947 295.39 186.948 295.389 186.948 295.389C186.949 295.388 186.952 295.387 186.955 295.385C186.959 295.383 186.964 295.38 186.97 295.376C186.977 295.373 186.985 295.368 186.994 295.361C187.004 295.355 187.016 295.348 187.029 295.338C187.043 295.329 187.059 295.317 187.077 295.303C187.095 295.289 187.116 295.271 187.139 295.25L186.459 294.517L185.778 293.785C185.801 293.763 185.822 293.745 185.841 293.731C185.859 293.717 185.875 293.705 185.889 293.695C185.902 293.686 185.914 293.678 185.924 293.672C185.933 293.666 185.942 293.661 185.948 293.657C185.954 293.653 185.96 293.65 185.963 293.648C185.967 293.646 185.97 293.645 185.971 293.644C185.971 293.644 185.972 293.643 185.972 293.643C185.972 293.643 185.972 293.643 185.972 293.644C185.971 293.644 185.969 293.645 185.967 293.646C185.962 293.649 185.954 293.654 185.943 293.66C185.932 293.667 185.918 293.676 185.902 293.687C185.87 293.708 185.827 293.74 185.781 293.783L186.462 294.515ZM186.459 294.517L187.166 295.224L187.165 295.225L186.458 294.518L185.751 293.811L185.752 293.81L186.459 294.517ZM186.458 294.518L187.012 295.35L187.009 295.352L186.455 294.52L185.9 293.688L185.903 293.686L186.458 294.518ZM186.455 294.52L187.162 295.227C149.613 332.759 149.613 394.519 187.162 432.051L186.455 432.758L185.748 433.466C147.417 395.152 147.417 332.126 185.748 293.813L186.455 294.52ZM186.455 432.758L187.162 432.051C224.711 469.583 286.489 469.583 324.039 432.051L324.746 432.758L325.453 433.466C287.122 471.778 224.078 471.778 185.748 433.466L186.455 432.758ZM324.746 432.758L324.039 432.051C356.894 399.211 361.005 347.816 336.356 310.335L337.191 309.786L338.027 309.236C363.183 347.489 358.996 399.937 325.453 433.466L324.746 432.758ZM337.191 309.786L338.189 309.724C339.39 329.323 328.595 348.636 309.567 357.509L309.144 356.603L308.722 355.697C326.989 347.178 337.345 328.643 336.193 309.847L337.191 309.786ZM309.144 356.603L309.567 357.509C284.799 369.058 255.438 358.555 243.997 334.02L244.903 333.597L245.809 333.175C256.775 356.691 284.937 366.787 308.722 355.697L309.144 356.603ZM244.903 333.597L243.997 334.02C233.982 312.544 241.029 287.461 259.55 273.794L260.144 274.599L260.738 275.404C242.956 288.525 236.211 312.591 245.809 333.175L244.903 333.597ZM260.144 274.599L260.166 275.599L260.122 275.6L260.1 274.6L260.078 273.6L260.122 273.599L260.144 274.599ZM260.1 274.6L259.45 273.84L318.45 223.34L319.1 224.1L319.751 224.86L260.751 275.36L260.1 274.6ZM319.1 224.1L318.506 223.296L318.614 223.216L319.209 224.02L319.803 224.824L319.694 224.904L319.1 224.1ZM319.209 224.02L318.417 223.409C319.422 222.106 320.359 220.976 321.171 220.042L321.925 220.699L322.68 221.355C321.892 222.26 320.98 223.361 320 224.631L319.209 224.02ZM321.925 220.699L321.171 220.042C322.03 219.056 322.747 218.288 323.25 217.766L323.97 218.46L324.69 219.155C324.207 219.655 323.513 220.397 322.68 221.355L321.925 220.699ZM323.97 218.46L323.25 217.766C323.501 217.507 323.699 217.306 323.837 217.169L324.542 217.878L325.246 218.588C325.121 218.713 324.933 218.903 324.69 219.155L323.97 218.46ZM324.542 217.878L323.837 217.169C323.907 217.099 323.961 217.047 323.995 217.014L324.692 217.731L325.389 218.448C325.355 218.481 325.308 218.527 325.246 218.588L324.542 217.878ZM324.692 217.731L323.995 217.014C324.009 217 324.021 216.989 324.029 216.981C324.032 216.979 324.033 216.977 324.035 216.976C324.037 216.974 324.038 216.973 324.039 216.973C324.041 216.97 324.04 216.971 324.038 216.973L324.731 217.694L325.424 218.415C325.418 218.421 325.412 218.426 325.409 218.429C325.407 218.431 325.405 218.433 325.404 218.434C325.403 218.435 325.401 218.436 325.4 218.438C325.395 218.442 325.392 218.445 325.389 218.448L324.692 217.731ZM324.731 217.694L324.037 216.974C324.057 216.954 324.074 216.94 324.08 216.934C324.082 216.933 324.083 216.932 324.083 216.932C324.083 216.932 324.082 216.933 324.082 216.933C324.081 216.934 324.08 216.934 324.079 216.935C324.077 216.937 324.074 216.94 324.069 216.945C324.064 216.949 324.057 216.955 324.048 216.964L324.741 217.685L325.433 218.407C325.424 218.415 325.417 218.422 325.411 218.427C325.406 218.432 325.401 218.436 325.399 218.438C325.396 218.441 325.394 218.443 325.393 218.443C325.392 218.444 325.393 218.443 325.393 218.443C325.396 218.441 325.409 218.429 325.425 218.414L324.731 217.694ZM324.741 217.685L324.052 216.96C323.989 217.021 323.944 217.079 323.915 217.122C323.9 217.144 323.888 217.163 323.879 217.178C323.87 217.193 323.864 217.205 323.86 217.212C323.859 217.215 323.857 217.217 323.857 217.218C323.857 217.219 323.856 217.219 323.856 217.219C323.856 217.219 323.857 217.218 323.857 217.218C323.858 217.216 323.86 217.213 323.862 217.208C323.865 217.204 323.868 217.197 323.873 217.189C323.878 217.18 323.884 217.169 323.892 217.157C323.9 217.144 323.91 217.128 323.923 217.11C323.935 217.092 323.951 217.07 323.971 217.046C323.991 217.022 324.016 216.993 324.048 216.963L324.743 217.682L325.438 218.401C325.469 218.371 325.494 218.342 325.514 218.318C325.534 218.294 325.55 218.273 325.563 218.255C325.575 218.237 325.585 218.221 325.593 218.208C325.601 218.196 325.607 218.185 325.612 218.177C325.617 218.169 325.62 218.162 325.623 218.157C325.625 218.153 325.627 218.15 325.627 218.148C325.628 218.148 325.628 218.148 325.628 218.147C325.628 218.147 325.628 218.147 325.628 218.147C325.628 218.147 325.628 218.147 325.628 218.148C325.627 218.149 325.626 218.152 325.624 218.155C325.62 218.162 325.613 218.174 325.605 218.19C325.596 218.205 325.584 218.224 325.569 218.247C325.539 218.29 325.494 218.349 325.43 218.41L324.741 217.685ZM324.743 217.682L324.012 218.364L323.943 218.291L324.674 217.609L325.406 216.927L325.474 217L324.743 217.682ZM324.674 217.609L325.396 216.917L325.465 216.989L324.744 217.681L324.022 218.373L323.953 218.301L324.674 217.609ZM324.744 217.681L324.297 216.787L324.299 216.786L324.746 217.68L325.193 218.575L325.191 218.576L324.744 217.681ZM324.746 217.68L324.039 216.973C361.588 179.441 361.588 117.681 324.039 80.1492L324.746 79.4419L325.453 78.7346C363.783 117.048 363.783 180.074 325.453 218.387L324.746 217.68Z"/></clipPath><radialGradient id="paint0_radial_2014_2" cx="0" cy="0" r="1" gradientUnits="userSpaceOnUse" gradientTransform="translate(256 216.615) scale(196.923)">
<stop stop-color="#1F1238"/>
<stop offset="0.55" stop-color="#0D081C"/>
<stop offset="1" stop-color="#03030A"/>
</radialGradient>
<radialGradient id="paint1_radial_2014_2" cx="0" cy="0" r="1" gradientUnits="userSpaceOnUse" gradientTransform="translate(150 140) scale(180)">
<stop stop-color="#1AD9FF" stop-opacity="0.78"/>
<stop offset="0.55" stop-color="#1AD9FF" stop-opacity="0.273"/>
<stop offset="1" stop-color="#1AD9FF" stop-opacity="0"/>
</radialGradient>
<radialGradient id="paint2_radial_2014_2" cx="0" cy="0" r="1" gradientUnits="userSpaceOnUse" gradientTransform="translate(390 120) scale(170)">
<stop stop-color="#8C33FF" stop-opacity="0.7"/>
<stop offset="0.55" stop-color="#8C33FF" stop-opacity="0.245"/>
<stop offset="1" stop-color="#8C33FF" stop-opacity="0"/>
</radialGradient>
<radialGradient id="paint3_radial_2014_2" cx="0" cy="0" r="1" gradientUnits="userSpaceOnUse" gradientTransform="translate(130 430) scale(180)">
<stop stop-color="#FF248C" stop-opacity="0.72"/>
<stop offset="0.55" stop-color="#FF248C" stop-opacity="0.252"/>
<stop offset="1" stop-color="#FF248C" stop-opacity="0"/>
</radialGradient>
<radialGradient id="paint4_radial_2014_2" cx="0" cy="0" r="1" gradientUnits="userSpaceOnUse" gradientTransform="translate(410 420) scale(150)">
<stop stop-color="#FF9E2E" stop-opacity="0.62"/>
<stop offset="0.55" stop-color="#FF9E2E" stop-opacity="0.217"/>
<stop offset="1" stop-color="#FF9E2E" stop-opacity="0"/>
</radialGradient>
<radialGradient id="paint5_radial_2014_2" cx="0" cy="0" r="1" gradientUnits="userSpaceOnUse" gradientTransform="translate(260 280) scale(140)">
<stop stop-color="#4080FF" stop-opacity="0.45"/>
<stop offset="0.55" stop-color="#4080FF" stop-opacity="0.1575"/>
<stop offset="1" stop-color="#4080FF" stop-opacity="0"/>
</radialGradient>
<radialGradient id="paint6_radial_2014_2" cx="0" cy="0" r="1" gradientUnits="userSpaceOnUse" gradientTransform="translate(256 256) scale(190)">
<stop stop-color="#E666FF" stop-opacity="0.55"/>
<stop offset="0.45" stop-color="#6633E6" stop-opacity="0.25"/>
<stop offset="1" stop-opacity="0"/>
</radialGradient>
<linearGradient id="paint7_linear_2014_2" x1="255.6" y1="51" x2="255.6" y2="461.2" gradientUnits="userSpaceOnUse">
<stop stop-color="#DAF5F2"/>
<stop offset="1" stop-color="#A6E9F5"/>
</linearGradient>
<linearGradient id="paint8_linear_2014_2" x1="255.6" y1="51" x2="255.6" y2="461.2" gradientUnits="userSpaceOnUse">
<stop stop-color="#CBFFF9"/>
<stop offset="1" stop-color="#92DCE9"/>
</linearGradient>
<radialGradient id="paint10_radial_2014_2" cx="0" cy="0" r="1" gradientUnits="userSpaceOnUse" gradientTransform="translate(228.51 98.508) rotate(90) scale(19 8.5)">
<stop offset="0.115385" stop-color="#411A77"/>
<stop offset="1" stop-color="#847070" stop-opacity="0.01"/>
</radialGradient>
<radialGradient id="paint11_radial_2014_2" cx="0" cy="0" r="1" gradientUnits="userSpaceOnUse" gradientTransform="translate(258.805 435.699) rotate(90) scale(19 8.5)">
<stop offset="0.115385" stop-color="#411A77"/>
<stop offset="1" stop-color="#847070" stop-opacity="0.01"/>
</radialGradient>
<radialGradient id="paint12_radial_2014_2" cx="0" cy="0" r="1" gradientUnits="userSpaceOnUse" gradientTransform="translate(205.919 191.259) rotate(90) scale(19 8.5)">
<stop offset="0.115385" stop-color="#411A77"/>
<stop offset="1" stop-color="#847070" stop-opacity="0.01"/>
</radialGradient>
<radialGradient id="paint13_radial_2014_2" cx="0" cy="0" r="1" gradientUnits="userSpaceOnUse" gradientTransform="translate(334.02 189.629) rotate(90) scale(19 8.5)">
<stop offset="0.115385" stop-color="#411A77"/>
<stop offset="1" stop-color="#847070" stop-opacity="0.01"/>
</radialGradient>
<radialGradient id="paint14_radial_2014_2" cx="0" cy="0" r="1" gradientUnits="userSpaceOnUse" gradientTransform="translate(286.241 98.013) rotate(90) scale(19 8.5)">
<stop offset="0.115385" stop-color="#411A77"/>
<stop offset="1" stop-color="#847070" stop-opacity="0.01"/>
</radialGradient>
<radialGradient id="paint15_radial_2014_2" cx="0" cy="0" r="1" gradientUnits="userSpaceOnUse" gradientTransform="translate(323.157 165.319) rotate(90) scale(19 8.5)">
<stop offset="0.115385" stop-color="#411A77"/>
<stop offset="1" stop-color="#847070" stop-opacity="0.01"/>
</radialGradient>
<radialGradient id="paint16_radial_2014_2" cx="0" cy="0" r="1" gradientUnits="userSpaceOnUse" gradientTransform="translate(306.026 204.468) rotate(90) scale(19 8.5)">
<stop offset="0.115385" stop-color="#411A77"/>
<stop offset="1" stop-color="#847070" stop-opacity="0.01"/>
</radialGradient>
<radialGradient id="paint17_radial_2014_2" cx="0" cy="0" r="1" gradientUnits="userSpaceOnUse" gradientTransform="translate(346.297 134.72) rotate(90) scale(19 8.5)">
<stop offset="0.115385" stop-color="#411A77"/>
<stop offset="1" stop-color="#847070" stop-opacity="0.01"/>
</radialGradient>
<radialGradient id="paint18_radial_2014_2" cx="0" cy="0" r="1" gradientUnits="userSpaceOnUse" gradientTransform="translate(282.043 137.68) rotate(90) scale(19 8.5)">
<stop offset="0.115385" stop-color="#411A77"/>
<stop offset="1" stop-color="#847070" stop-opacity="0.01"/>
</radialGradient>
<radialGradient id="paint19_radial_2014_2" cx="0" cy="0" r="1" gradientUnits="userSpaceOnUse" gradientTransform="translate(308.078 159.312) rotate(90) scale(19 8.5)">
<stop offset="0.115385" stop-color="#411A77"/>
<stop offset="1" stop-color="#847070" stop-opacity="0.01"/>
</radialGradient>
<radialGradient id="paint20_radial_2014_2" cx="0" cy="0" r="1" gradientUnits="userSpaceOnUse" gradientTransform="translate(220.876 417.702) rotate(90) scale(19 8.5)">
<stop offset="0.115385" stop-color="#411A77"/>
<stop offset="1" stop-color="#847070" stop-opacity="0.01"/>
</radialGradient>
<radialGradient id="paint21_radial_2014_2" cx="0" cy="0" r="1" gradientUnits="userSpaceOnUse" gradientTransform="translate(321.466 130.126) rotate(90) scale(19 8.5)">
<stop offset="0.115385" stop-color="#411A77"/>
<stop offset="1" stop-color="#847070" stop-opacity="0.01"/>
</radialGradient>
<radialGradient id="paint22_radial_2014_2" cx="0" cy="0" r="1" gradientUnits="userSpaceOnUse" gradientTransform="translate(320.177 112.742) rotate(90) scale(19 8.5)">
<stop offset="0.115385" stop-color="#411A77"/>
<stop offset="1" stop-color="#847070" stop-opacity="0.01"/>
</radialGradient>
<radialGradient id="paint23_radial_2014_2" cx="0" cy="0" r="1" gradientUnits="userSpaceOnUse" gradientTransform="translate(320.149 386.026) rotate(90) scale(19 8.5)">
<stop offset="0.115385" stop-color="#411A77"/>
<stop offset="1" stop-color="#847070" stop-opacity="0.01"/>
</radialGradient>
<radialGradient id="paint24_radial_2014_2" cx="0" cy="0" r="1" gradientUnits="userSpaceOnUse" gradientTransform="translate(194.802 169) rotate(90) scale(19 8.5)">
<stop offset="0.115385" stop-color="#411A77"/>
<stop offset="1" stop-color="#847070" stop-opacity="0.01"/>
</radialGradient>
<radialGradient id="paint25_radial_2014_2" cx="0" cy="0" r="1" gradientUnits="userSpaceOnUse" gradientTransform="translate(182.59 147.967) rotate(90) scale(19 8.5)">
<stop offset="0.115385" stop-color="#411A77"/>
<stop offset="1" stop-color="#847070" stop-opacity="0.01"/>
</radialGradient>
<radialGradient id="paint26_radial_2014_2" cx="0" cy="0" r="1" gradientUnits="userSpaceOnUse" gradientTransform="translate(284.08 178.925) rotate(90) scale(19 8.5)">
<stop offset="0.115385" stop-color="#623E1D"/>
<stop offset="1" stop-color="#847070" stop-opacity="0.01"/>
</radialGradient>
<radialGradient id="paint27_radial_2014_2" cx="0" cy="0" r="1" gradientUnits="userSpaceOnUse" gradientTransform="translate(289.565 216.188) rotate(90) scale(19 8.5)">
<stop offset="0.115385" stop-color="#623E1D"/>
<stop offset="1" stop-color="#847070" stop-opacity="0.01"/>
</radialGradient>
<radialGradient id="paint28_radial_2014_2" cx="0" cy="0" r="1" gradientUnits="userSpaceOnUse" gradientTransform="translate(294.66 167.091) rotate(90) scale(19 8.5)">
<stop offset="0.115385" stop-color="#623E1D"/>
<stop offset="1" stop-color="#847070" stop-opacity="0.01"/>
</radialGradient>
<radialGradient id="paint29_radial_2014_2" cx="0" cy="0" r="1" gradientUnits="userSpaceOnUse" gradientTransform="translate(310.421 437.247) rotate(90) scale(19 8.5)">
<stop offset="0.115385" stop-color="#623E1D"/>
<stop offset="1" stop-color="#847070" stop-opacity="0.01"/>
</radialGradient>
<radialGradient id="paint30_radial_2014_2" cx="0" cy="0" r="1" gradientUnits="userSpaceOnUse" gradientTransform="translate(300.64 344.07) rotate(90) scale(19 8.5)">
<stop offset="0.115385" stop-color="#623E1D"/>
<stop offset="1" stop-color="#847070" stop-opacity="0.01"/>
</radialGradient>
<radialGradient id="paint31_radial_2014_2" cx="0" cy="0" r="1" gradientUnits="userSpaceOnUse" gradientTransform="translate(279.806 290.789) rotate(90) scale(19 8.5)">
<stop offset="0.115385" stop-color="#623E1D"/>
<stop offset="1" stop-color="#847070" stop-opacity="0.01"/>
</radialGradient>
<radialGradient id="paint32_radial_2014_2" cx="0" cy="0" r="1" gradientUnits="userSpaceOnUse" gradientTransform="translate(283.814 244.661) rotate(90) scale(19 8.5)">
<stop offset="0.115385" stop-color="#623E1D"/>
<stop offset="1" stop-color="#847070" stop-opacity="0.01"/>
</radialGradient>
<radialGradient id="paint33_radial_2014_2" cx="0" cy="0" r="1" gradientUnits="userSpaceOnUse" gradientTransform="translate(248.987 148.731) rotate(90) scale(19 8.5)">
<stop offset="0.115385" stop-color="#623E1D"/>
<stop offset="1" stop-color="#847070" stop-opacity="0.01"/>
</radialGradient>
<radialGradient id="paint34_radial_2014_2" cx="0" cy="0" r="1" gradientUnits="userSpaceOnUse" gradientTransform="translate(226.341 193.937) rotate(90) scale(19 8.5)">
<stop offset="0.115385" stop-color="#623E1D"/>
<stop offset="1" stop-color="#847070" stop-opacity="0.01"/>
</radialGradient>
<radialGradient id="paint35_radial_2014_2" cx="0" cy="0" r="1" gradientUnits="userSpaceOnUse" gradientTransform="translate(293.501 448.742) rotate(90) scale(19 8.5)">
<stop offset="0.115385" stop-color="#623E1D"/>
<stop offset="1" stop-color="#847070" stop-opacity="0.01"/>
</radialGradient>
<radialGradient id="paint36_radial_2014_2" cx="0" cy="0" r="1" gradientUnits="userSpaceOnUse" gradientTransform="translate(275.031 213.988) rotate(90) scale(19 8.5)">
<stop offset="0.115385" stop-color="#623E1D"/>
<stop offset="1" stop-color="#847070" stop-opacity="0.01"/>
</radialGradient>
<radialGradient id="paint37_radial_2014_2" cx="0" cy="0" r="1" gradientUnits="userSpaceOnUse" gradientTransform="translate(308.252 214.374) rotate(90) scale(19 8.5)">
<stop offset="0.115385" stop-color="#623E1D"/>
<stop offset="1" stop-color="#847070" stop-opacity="0.01"/>
</radialGradient>
<radialGradient id="paint38_radial_2014_2" cx="0" cy="0" r="1" gradientUnits="userSpaceOnUse" gradientTransform="translate(243.843 440.791) rotate(90) scale(19 8.5)">
<stop offset="0.115385" stop-color="#135E74"/>
<stop offset="1" stop-color="#847070" stop-opacity="0.01"/>
</radialGradient>
<radialGradient id="paint39_radial_2014_2" cx="0" cy="0" r="1" gradientUnits="userSpaceOnUse" gradientTransform="translate(280.341 430.322) rotate(90) scale(19 8.5)">
<stop offset="0.115385" stop-color="#135E74"/>
<stop offset="1" stop-color="#847070" stop-opacity="0.01"/>
</radialGradient>
<radialGradient id="paint40_radial_2014_2" cx="0" cy="0" r="1" gradientUnits="userSpaceOnUse" gradientTransform="translate(222.566 221.472) rotate(90) scale(19 8.5)">
<stop offset="0.115385" stop-color="#135E74"/>
<stop offset="1" stop-color="#847070" stop-opacity="0.01"/>
</radialGradient>
<radialGradient id="paint41_radial_2014_2" cx="0" cy="0" r="1" gradientUnits="userSpaceOnUse" gradientTransform="translate(258.793 140.767) rotate(90) scale(19 8.5)">
<stop offset="0.115385" stop-color="#135E74"/>
<stop offset="1" stop-color="#847070" stop-opacity="0.01"/>
</radialGradient>
<radialGradient id="paint42_radial_2014_2" cx="0" cy="0" r="1" gradientUnits="userSpaceOnUse" gradientTransform="translate(325.337 180.757) rotate(90) scale(19 8.5)">
<stop offset="0.115385" stop-color="#135E74"/>
<stop offset="1" stop-color="#847070" stop-opacity="0.01"/>
</radialGradient>
<radialGradient id="paint43_radial_2014_2" cx="0" cy="0" r="1" gradientUnits="userSpaceOnUse" gradientTransform="translate(294.124 118.782) rotate(90) scale(19 8.5)">
<stop offset="0.115385" stop-color="#135E74"/>
<stop offset="1" stop-color="#847070" stop-opacity="0.01"/>
</radialGradient>
<radialGradient id="paint44_radial_2014_2" cx="0" cy="0" r="1" gradientUnits="userSpaceOnUse" gradientTransform="translate(318.124 422.782) rotate(90) scale(19 8.5)">
<stop offset="0.115385" stop-color="#135E74"/>
<stop offset="1" stop-color="#847070" stop-opacity="0.01"/>
</radialGradient>
<radialGradient id="paint45_radial_2014_2" cx="0" cy="0" r="1" gradientUnits="userSpaceOnUse" gradientTransform="translate(253.544 455.799) rotate(90) scale(19 8.5)">
<stop offset="0.115385" stop-color="#135E74"/>
<stop offset="1" stop-color="#847070" stop-opacity="0.01"/>
</radialGradient>
<radialGradient id="paint46_radial_2014_2" cx="0" cy="0" r="1" gradientUnits="userSpaceOnUse" gradientTransform="translate(282.243 437.954) rotate(90) scale(19 8.5)">
<stop offset="0.115385" stop-color="#135E74"/>
<stop offset="1" stop-color="#847070" stop-opacity="0.01"/>
</radialGradient>
<radialGradient id="paint47_radial_2014_2" cx="0" cy="0" r="1" gradientUnits="userSpaceOnUse" gradientTransform="translate(290.814 230.661) rotate(90) scale(19 8.5)">
<stop offset="0.115385" stop-color="#135E74"/>
<stop offset="1" stop-color="#847070" stop-opacity="0.01"/>
</radialGradient>
<radialGradient id="paint48_radial_2014_2" cx="0" cy="0" r="1" gradientUnits="userSpaceOnUse" gradientTransform="translate(226.201 134.127) rotate(90) scale(19 8.5)">
<stop offset="0.115385" stop-color="#135E74"/>
<stop offset="1" stop-color="#847070" stop-opacity="0.01"/>
</radialGradient>
<radialGradient id="paint49_radial_2014_2" cx="0" cy="0" r="1" gradientUnits="userSpaceOnUse" gradientTransform="translate(340.746 166.48) rotate(90) scale(19 8.5)">
<stop offset="0.115385" stop-color="#135E74"/>
<stop offset="1" stop-color="#847070" stop-opacity="0.01"/>
</radialGradient>
<radialGradient id="paint50_radial_2014_2" cx="0" cy="0" r="1" gradientUnits="userSpaceOnUse" gradientTransform="translate(321.585 205.473) rotate(90) scale(19 8.5)">
<stop offset="0.115385" stop-color="#135E74"/>
<stop offset="1" stop-color="#847070" stop-opacity="0.01"/>
</radialGradient>
<radialGradient id="paint51_radial_2014_2" cx="0" cy="0" r="1" gradientUnits="userSpaceOnUse" gradientTransform="translate(263.676 450.049) rotate(90) scale(19 8.5)">
<stop offset="0.115385" stop-color="#135E74"/>
<stop offset="1" stop-color="#847070" stop-opacity="0.01"/>
</radialGradient>
<radialGradient id="paint52_radial_2014_2" cx="0" cy="0" r="1" gradientUnits="userSpaceOnUse" gradientTransform="translate(236.854 113.644) rotate(90) scale(19 8.5)">
<stop offset="0.115385" stop-color="#135E74"/>
<stop offset="1" stop-color="#847070" stop-opacity="0.01"/>
</radialGradient>
<radialGradient id="paint53_radial_2014_2" cx="0" cy="0" r="1" gradientUnits="userSpaceOnUse" gradientTransform="translate(232.01 76.6493) rotate(90) scale(19 8.5)">
<stop offset="0.115385" stop-color="#135E74"/>
<stop offset="1" stop-color="#847070" stop-opacity="0.01"/>
</radialGradient>
<radialGradient id="paint54_radial_2014_2" cx="0" cy="0" r="1" gradientUnits="userSpaceOnUse" gradientTransform="translate(333.208 114.296) rotate(90) scale(19 8.5)">
<stop offset="0.115385" stop-color="#135E74"/>
<stop offset="1" stop-color="#847070" stop-opacity="0.01"/>
</radialGradient>
<radialGradient id="paint55_radial_2014_2" cx="0" cy="0" r="1" gradientUnits="userSpaceOnUse" gradientTransform="translate(250.676 265.049) rotate(90) scale(19 8.5)">
<stop offset="0.115385" stop-color="#701347"/>
<stop offset="1" stop-color="#847070" stop-opacity="0.01"/>
</radialGradient>
<radialGradient id="paint56_radial_2014_2" cx="0" cy="0" r="1" gradientUnits="userSpaceOnUse" gradientTransform="translate(295.811 202.245) rotate(90) scale(19 8.5)">
<stop offset="0.115385" stop-color="#701347"/>
<stop offset="1" stop-color="#847070" stop-opacity="0.01"/>
</radialGradient>
<radialGradient id="paint57_radial_2014_2" cx="0" cy="0" r="1" gradientUnits="userSpaceOnUse" gradientTransform="translate(229.919 119.504) rotate(90) scale(19 8.5)">
<stop offset="0.115385" stop-color="#701347"/>
<stop offset="1" stop-color="#847070" stop-opacity="0.01"/>
</radialGradient>
<radialGradient id="paint58_radial_2014_2" cx="0" cy="0" r="1" gradientUnits="userSpaceOnUse" gradientTransform="translate(250.345 93.9511) rotate(90) scale(19 8.5)">
<stop offset="0.115385" stop-color="#701347"/>
<stop offset="1" stop-color="#847070" stop-opacity="0.01"/>
</radialGradient>
<radialGradient id="paint59_radial_2014_2" cx="0" cy="0" r="1" gradientUnits="userSpaceOnUse" gradientTransform="translate(267.208 93.5669) rotate(90) scale(19 8.5)">
<stop offset="0.115385" stop-color="#701347"/>
<stop offset="1" stop-color="#847070" stop-opacity="0.01"/>
</radialGradient>
<radialGradient id="paint60_radial_2014_2" cx="0" cy="0" r="1" gradientUnits="userSpaceOnUse" gradientTransform="translate(224.524 443.746) rotate(90) scale(19 8.5)">
<stop offset="0.115385" stop-color="#701347"/>
<stop offset="1" stop-color="#847070" stop-opacity="0.01"/>
</radialGradient>
<radialGradient id="paint61_radial_2014_2" cx="0" cy="0" r="1" gradientUnits="userSpaceOnUse" gradientTransform="translate(305.806 135.714) rotate(90) scale(19 8.5)">
<stop offset="0.115385" stop-color="#701347"/>
<stop offset="1" stop-color="#847070" stop-opacity="0.01"/>
</radialGradient>
<radialGradient id="paint62_radial_2014_2" cx="0" cy="0" r="1" gradientUnits="userSpaceOnUse" gradientTransform="translate(294.806 410.714) rotate(90) scale(19 8.5)">
<stop offset="0.115385" stop-color="#701347"/>
<stop offset="1" stop-color="#847070" stop-opacity="0.01"/>
</radialGradient>
<radialGradient id="paint63_radial_2014_2" cx="0" cy="0" r="1" gradientUnits="userSpaceOnUse" gradientTransform="translate(270.305 128.662) rotate(90) scale(19 8.5)">
<stop offset="0.115385" stop-color="#701347"/>
<stop offset="1" stop-color="#847070" stop-opacity="0.01"/>
</radialGradient>
<radialGradient id="paint64_radial_2014_2" cx="0" cy="0" r="1" gradientUnits="userSpaceOnUse" gradientTransform="translate(272.304 231.117) rotate(90) scale(19 8.5)">
<stop offset="0.115385" stop-color="#701347"/>
<stop offset="1" stop-color="#847070" stop-opacity="0.01"/>
</radialGradient>
<radialGradient id="paint65_radial_2014_2" cx="0" cy="0" r="1" gradientUnits="userSpaceOnUse" gradientTransform="translate(237.135 451.496) rotate(90) scale(19 8.5)">
<stop offset="0.115385" stop-color="#701347"/>
<stop offset="1" stop-color="#847070" stop-opacity="0.01"/>
</radialGradient>
<radialGradient id="paint66_radial_2014_2" cx="0" cy="0" r="1" gradientUnits="userSpaceOnUse" gradientTransform="translate(278.868 167.418) rotate(90) scale(19 8.5)">
<stop offset="0.115385" stop-color="#701347"/>
<stop offset="1" stop-color="#847070" stop-opacity="0.01"/>
</radialGradient>
<radialGradient id="paint67_radial_2014_2" cx="0" cy="0" r="1" gradientUnits="userSpaceOnUse" gradientTransform="translate(206.381 131.608) rotate(90) scale(19 8.5)">
<stop offset="0.115385" stop-color="#701347"/>
<stop offset="1" stop-color="#847070" stop-opacity="0.01"/>
</radialGradient>
<radialGradient id="paint68_radial_2014_2" cx="0" cy="0" r="1" gradientUnits="userSpaceOnUse" gradientTransform="translate(305.832 228.997) rotate(90) scale(19 8.5)">
<stop offset="0.115385" stop-color="#701347"/>
<stop offset="1" stop-color="#847070" stop-opacity="0.01"/>
</radialGradient>
<radialGradient id="paint69_radial_2014_2" cx="0" cy="0" r="1" gradientUnits="userSpaceOnUse" gradientTransform="translate(279.706 450.158) rotate(90) scale(19 8.5)">
<stop offset="0.115385" stop-color="#701347"/>
<stop offset="1" stop-color="#847070" stop-opacity="0.01"/>
</radialGradient>
<radialGradient id="paint70_radial_2014_2" cx="0" cy="0" r="1" gradientUnits="userSpaceOnUse" gradientTransform="translate(298.62 430.85) rotate(90) scale(19 8.5)">
<stop offset="0.115385" stop-color="#701347"/>
<stop offset="1" stop-color="#847070" stop-opacity="0.01"/>
</radialGradient>
<radialGradient id="paint71_radial_2014_2" cx="0" cy="0" r="1" gradientUnits="userSpaceOnUse" gradientTransform="translate(312.189 183.461) rotate(90) scale(19 8.5)">
<stop offset="0.115385" stop-color="#701347"/>
<stop offset="1" stop-color="#847070" stop-opacity="0.01"/>
</radialGradient>
<radialGradient id="paint72_radial_2014_2" cx="0" cy="0" r="1" gradientUnits="userSpaceOnUse" gradientTransform="translate(232.118 170.711) rotate(90) scale(19 8.5)">
<stop offset="0.115385" stop-color="#701347"/>
<stop offset="1" stop-color="#847070" stop-opacity="0.01"/>
</radialGradient>
<radialGradient id="paint73_radial_2014_2" cx="0" cy="0" r="1" gradientUnits="userSpaceOnUse" gradientTransform="translate(330.777 136.213) rotate(90) scale(19 8.5)">
<stop offset="0.115385" stop-color="#701347"/>
<stop offset="1" stop-color="#847070" stop-opacity="0.01"/>
</radialGradient>
<radialGradient id="paint74_radial_2014_2" cx="0" cy="0" r="1" gradientUnits="userSpaceOnUse" gradientTransform="translate(295.443 188.448) rotate(90) scale(19 8.5)">
<stop offset="0.115385" stop-color="#701347"/>
<stop offset="1" stop-color="#847070" stop-opacity="0.01"/>
</radialGradient>
<radialGradient id="paint75_radial_2014_2" cx="0" cy="0" r="1" gradientUnits="userSpaceOnUse" gradientTransform="translate(282.081 187.782) rotate(90) scale(19 8.5)">
<stop offset="0.115385" stop-color="#701347"/>
<stop offset="1" stop-color="#847070" stop-opacity="0.01"/>
</radialGradient>
<radialGradient id="paint76_radial_2014_2" cx="0" cy="0" r="1" gradientUnits="userSpaceOnUse" gradientTransform="translate(279.437 157.281) rotate(90) scale(19 8.5)">
<stop offset="0.115385" stop-color="#701347"/>
<stop offset="1" stop-color="#847070" stop-opacity="0.01"/>
</radialGradient>
<radialGradient id="paint77_radial_2014_2" cx="0" cy="0" r="1" gradientUnits="userSpaceOnUse" gradientTransform="translate(206.994 350.525) rotate(90) scale(19 8.5)">
<stop offset="0.115385" stop-color="#1E1919" stop-opacity="0.85"/>
<stop offset="1" stop-color="#847070" stop-opacity="0.01"/>
</radialGradient>
<clipPath id="clip0_2014_2">
<rect width="512" height="512" rx="114" fill="white"/>
</clipPath>
</defs>
</svg>
